<?xml version="1.0" encoding="UTF-8" ?>
<!DOCTYPE svg PUBLIC "-//W3C//DTD SVG 1.1//EN" "http://www.w3.org/Graphics/SVG/1.1/DTD/svg11.dtd">
<svg width="600pt" height="600pt" viewBox="0 0 600 600" version="1.1" xmlns="http://www.w3.org/2000/svg">
<g id="#d2d2d2ff">
<path fill="#d2d2d2" opacity="1.00" d=" M 149.12 60.09 C 154.21 54.88 162.22 53.86 169.16 54.41 C 173.95 56.04 179.16 55.08 183.94 56.79 C 192.35 59.76 201.20 61.73 209.02 66.18 C 214.19 68.97 219.83 70.88 224.69 74.26 C 228.70 77.10 233.22 79.14 237.11 82.17 C 241.22 85.64 245.79 88.60 249.61 92.42 C 255.44 98.77 260.64 105.75 264.48 113.50 C 268.01 120.60 272.82 127.11 275.24 134.73 C 277.17 142.60 277.01 150.87 279.26 158.67 C 280.11 161.23 281.70 164.68 285.02 164.08 C 291.44 162.85 294.34 154.71 291.93 149.04 C 290.20 144.07 284.33 142.07 282.81 136.99 C 281.04 131.84 287.05 125.62 292.17 128.18 C 293.99 129.20 295.87 130.21 297.41 131.64 C 300.79 134.90 299.32 140.04 300.87 144.09 C 302.19 141.58 302.11 138.67 301.82 135.93 C 303.87 131.57 307.98 128.17 312.78 127.45 C 316.66 128.22 320.10 131.93 319.37 136.08 C 318.42 141.77 311.84 143.84 310.09 149.13 C 307.83 154.76 310.55 162.88 317.00 164.04 C 320.30 164.70 321.87 161.20 322.73 158.67 C 325.00 150.85 324.85 142.57 326.78 134.69 C 329.17 127.11 333.96 120.64 337.48 113.58 C 341.44 105.60 346.79 98.36 352.91 91.91 C 357.53 87.66 362.68 84.01 367.66 80.19 C 373.53 76.97 378.86 72.79 384.98 70.01 C 391.96 67.01 398.40 62.82 405.78 60.78 C 412.51 58.95 418.93 55.59 426.03 55.52 C 429.45 55.72 432.60 53.95 436.03 54.20 C 443.10 54.37 451.30 56.23 454.94 62.99 C 459.75 68.09 462.68 75.70 460.44 82.61 C 458.80 86.71 454.00 87.85 450.02 87.78 C 441.15 87.51 433.44 82.67 425.18 80.17 C 419.48 80.18 413.70 78.82 408.05 79.86 C 402.00 82.57 395.43 83.92 389.54 87.05 C 386.82 88.32 384.23 89.92 382.13 92.10 C 377.56 96.94 371.33 99.97 367.31 105.37 C 363.28 110.99 358.72 116.21 355.05 122.09 C 348.42 130.77 344.13 141.14 342.53 151.94 C 341.86 156.76 340.84 161.52 340.32 166.36 C 339.41 173.77 338.42 181.43 340.27 188.77 C 340.87 191.49 341.54 194.19 342.09 196.92 C 342.73 202.23 343.23 207.61 345.01 212.70 C 347.15 223.02 347.93 233.55 349.54 243.96 C 350.33 254.96 350.66 266.04 350.01 277.06 C 348.87 285.13 347.91 293.22 346.97 301.32 C 346.61 304.48 346.29 307.65 345.87 310.81 C 345.82 311.32 345.71 312.36 345.65 312.88 C 345.38 315.86 345.46 318.87 345.97 321.82 C 346.16 322.81 346.35 323.80 346.54 324.79 C 347.09 327.93 347.35 331.10 347.73 334.26 C 349.43 356.08 351.96 378.39 346.98 399.99 C 343.85 416.77 339.59 433.86 329.70 448.08 C 328.10 450.96 326.63 453.93 324.71 456.63 C 324.09 457.47 323.48 458.31 322.86 459.15 C 320.93 461.91 318.91 464.62 316.69 467.16 C 312.36 471.40 308.88 476.35 305.27 481.19 C 303.40 484.20 298.60 484.20 296.73 481.20 C 293.26 476.65 290.11 471.84 285.90 467.91 C 283.45 465.15 281.27 462.17 279.15 459.16 C 278.52 458.31 277.90 457.47 277.28 456.63 C 275.37 453.93 273.90 450.96 272.30 448.08 C 260.82 431.61 257.08 411.49 253.53 392.14 C 250.64 372.82 252.75 353.23 254.34 333.90 C 254.67 330.86 254.91 327.81 255.46 324.80 C 255.64 323.80 255.83 322.80 256.03 321.81 C 256.54 318.87 256.61 315.86 256.35 312.89 C 256.29 312.36 256.18 311.32 256.12 310.79 C 255.70 307.64 255.38 304.48 255.02 301.32 C 254.10 292.86 252.94 284.43 251.89 275.98 C 251.44 265.04 251.61 254.05 252.56 243.14 C 254.15 233.02 254.91 222.77 256.95 212.72 C 258.84 207.35 259.48 201.64 259.87 195.98 C 261.05 191.38 262.56 186.80 262.73 182.02 C 262.90 176.77 262.38 171.54 261.66 166.35 C 259.90 154.20 258.65 141.51 252.42 130.65 C 247.24 121.43 240.54 113.19 234.19 104.77 C 231.66 101.61 228.43 99.13 225.18 96.76 C 221.45 94.09 218.64 90.28 214.55 88.09 C 208.07 84.39 200.72 82.82 193.94 79.84 C 188.28 78.83 182.52 80.22 176.82 80.16 C 168.60 82.69 160.89 87.46 152.06 87.78 C 148.22 87.84 143.61 86.88 141.75 83.09 C 139.98 78.91 140.79 74.14 142.43 70.05 C 143.72 66.17 147.06 63.54 149.12 60.09 M 289.46 175.53 C 286.05 177.26 282.78 179.31 279.84 181.77 C 277.12 183.82 277.40 187.80 278.43 190.67 C 279.99 194.64 282.42 199.09 286.96 200.04 C 293.66 201.78 301.53 196.02 300.93 188.92 C 300.13 184.95 297.95 181.42 295.79 178.06 C 294.57 175.94 291.85 174.40 289.46 175.53 M 268.36 185.54 C 265.56 187.20 265.92 192.08 269.10 193.07 C 273.24 194.92 276.51 188.26 273.63 185.45 C 272.03 184.36 269.95 184.58 268.36 185.54 M 272.43 196.49 C 266.05 199.89 262.01 206.84 261.04 213.87 C 260.12 221.72 267.03 227.52 273.35 230.69 C 277.96 233.25 283.49 230.08 285.82 225.88 C 287.94 222.41 291.14 218.12 289.09 213.93 C 286.21 208.50 285.06 201.94 280.26 197.72 C 278.31 195.59 274.95 195.58 272.43 196.49 M 298.44 226.48 C 288.45 228.67 279.84 238.48 280.97 249.01 C 281.53 254.12 284.38 258.62 287.63 262.48 C 290.20 265.45 289.66 269.82 291.93 272.97 C 294.07 276.07 297.10 279.15 301.12 279.32 C 309.08 280.05 316.68 275.58 321.48 269.48 C 326.07 263.56 330.04 256.64 330.37 248.99 C 330.67 242.66 326.58 236.73 321.11 233.82 C 314.31 229.77 306.66 225.27 298.44 226.48 M 266.41 237.46 C 263.74 238.08 261.85 240.28 260.31 242.40 C 256.55 247.73 254.49 254.60 256.02 261.07 C 256.57 264.33 259.61 267.01 262.93 267.06 C 266.42 267.34 270.35 267.52 273.27 265.23 C 277.21 262.75 278.72 257.18 276.99 252.94 C 275.50 249.04 274.74 244.85 272.83 241.12 C 271.71 238.76 269.07 236.98 266.41 237.46 M 336.27 259.36 C 332.29 261.02 327.90 265.18 329.27 269.91 C 330.16 272.66 330.94 275.88 333.55 277.53 C 337.10 280.19 343.38 279.97 345.53 275.61 C 347.39 271.58 346.01 266.82 343.81 263.21 C 342.31 260.70 339.33 258.40 336.27 259.36 M 272.37 271.34 C 265.06 274.06 261.61 281.91 259.97 288.98 C 258.59 296.56 264.07 302.82 265.04 310.01 C 264.09 315.86 260.34 320.99 259.95 327.02 C 258.98 333.30 261.78 340.66 267.89 343.27 C 272.21 345.17 276.97 343.07 280.43 340.36 C 285.61 336.38 290.62 330.94 290.94 324.06 C 291.54 319.67 288.22 315.68 289.40 311.29 C 290.69 305.25 291.81 299.13 291.97 292.94 C 291.87 285.91 290.46 277.97 284.59 273.38 C 281.30 270.44 276.44 270.10 272.37 271.34 M 321.22 279.36 C 317.24 280.71 313.33 282.46 309.85 284.82 C 304.94 288.96 301.37 294.42 297.74 299.65 C 291.93 308.75 293.93 320.21 297.13 329.87 C 299.47 335.83 298.52 342.96 302.80 348.13 C 306.02 351.70 309.70 356.14 314.97 356.05 C 320.45 356.06 324.64 351.91 328.32 348.34 C 333.78 343.25 337.28 336.28 338.70 328.99 C 339.44 324.80 337.28 320.95 336.44 316.97 C 337.62 311.15 341.02 305.90 341.37 299.86 C 343.05 288.91 332.62 276.81 321.22 279.36 M 286.29 343.39 C 281.92 344.28 278.13 347.00 275.29 350.36 C 271.18 355.18 267.69 360.74 266.31 366.99 C 264.95 374.45 267.26 381.81 269.07 388.97 C 270.12 392.87 270.27 397.08 272.34 400.65 C 274.84 405.59 280.52 409.01 286.11 407.94 C 290.90 406.95 294.67 403.45 297.85 399.93 C 302.04 395.22 306.36 389.61 306.06 382.94 C 306.48 373.45 304.26 363.99 300.71 355.24 C 298.29 349.37 293.38 342.75 286.29 343.39 M 309.34 359.44 C 306.07 360.96 305.23 366.54 308.82 368.26 C 311.49 369.93 314.93 367.01 314.40 364.07 C 314.69 361.28 312.27 358.36 309.34 359.44 M 328.44 360.46 C 322.58 361.68 318.60 366.57 314.71 370.73 C 311.64 373.96 310.14 378.47 310.78 382.90 C 310.73 387.24 312.77 392.19 317.22 393.58 C 323.24 395.19 328.34 400.22 334.95 399.21 C 340.82 398.68 343.70 392.50 344.53 387.36 C 345.58 379.95 345.75 371.42 340.56 365.42 C 337.51 362.22 332.97 359.69 328.44 360.46 M 313.30 399.44 C 307.78 400.16 302.52 402.63 298.47 406.46 C 293.81 411.17 291.03 417.53 290.02 424.03 C 290.36 427.22 291.94 430.50 294.82 432.14 C 297.87 434.08 300.52 436.59 303.60 438.50 C 307.71 440.85 313.12 441.89 317.36 439.27 C 323.95 435.37 330.57 429.20 330.56 420.96 C 330.20 415.32 329.14 409.52 326.28 404.58 C 323.82 400.12 318.09 398.34 313.30 399.44 M 265.34 401.44 C 259.87 402.41 262.76 411.11 267.66 409.63 C 272.17 408.07 269.99 400.47 265.34 401.44 M 272.26 410.31 C 269.52 411.31 266.80 413.82 266.95 416.95 C 266.45 421.24 269.62 424.85 272.99 427.02 C 275.64 428.73 280.05 428.89 281.65 425.68 C 283.91 422.16 282.25 417.81 280.37 414.53 C 278.83 411.75 275.56 409.31 272.26 410.31 M 285.46 434.47 C 280.23 434.86 276.62 441.25 279.15 445.88 C 281.51 451.04 284.50 456.79 290.15 458.90 C 293.56 460.32 297.52 461.91 301.14 460.24 C 304.49 459.12 306.49 455.33 305.92 451.92 C 304.64 445.86 300.51 440.51 294.93 437.82 C 291.94 436.38 288.90 434.36 285.46 434.47 M 315.43 444.36 C 312.91 446.19 309.38 448.35 309.83 451.97 C 309.98 454.59 309.55 458.18 312.52 459.42 C 316.08 461.46 319.57 457.83 320.43 454.56 C 321.22 451.60 323.48 448.24 321.46 445.30 C 320.07 443.60 317.25 442.97 315.43 444.36 Z" />
<path fill="#d2d2d2" opacity="1.00" d=" M 85.85 402.73 C 88.05 400.75 91.05 399.75 93.88 399.00 C 98.38 398.22 101.44 402.18 105.44 403.32 C 111.65 405.22 115.62 411.20 122.04 412.70 C 124.99 413.03 127.89 412.12 130.77 411.64 C 134.67 418.98 138.27 426.45 141.47 434.12 C 138.03 435.97 133.84 435.49 130.51 437.63 C 128.33 438.60 126.63 440.68 126.64 443.14 C 126.50 449.54 126.69 456.47 123.19 462.11 C 119.97 465.81 115.25 468.53 113.73 473.50 C 112.16 480.92 114.82 489.50 109.90 496.01 C 106.67 501.63 100.92 504.94 96.60 509.58 C 90.66 514.85 89.53 524.44 93.78 531.09 C 96.10 534.61 100.23 536.88 101.45 541.11 C 101.77 544.32 102.40 548.33 99.62 550.70 C 95.48 553.01 89.83 555.88 85.51 552.40 C 80.58 549.14 81.69 541.91 76.99 538.52 C 73.68 537.69 72.03 541.12 70.08 543.07 C 65.77 548.43 60.92 553.36 57.06 559.08 C 54.37 561.42 50.98 562.77 47.95 564.61 C 44.98 564.27 42.01 563.99 39.09 563.34 C 35.88 558.97 34.97 552.30 38.57 547.89 C 40.71 544.16 44.78 542.43 48.02 539.88 C 51.60 537.13 55.94 535.42 59.08 532.09 C 61.69 529.44 64.98 527.19 66.44 523.65 C 67.48 520.03 68.30 516.30 69.96 512.90 C 73.42 507.25 80.67 505.78 84.50 500.50 C 86.75 497.53 89.77 494.85 90.49 491.03 C 91.03 488.21 91.84 485.10 90.63 482.36 C 89.00 480.57 86.63 478.73 84.07 479.74 C 78.57 481.37 72.54 482.27 68.05 486.14 C 63.57 489.20 61.62 494.94 56.49 497.21 C 52.99 498.56 49.98 501.81 45.98 501.26 C 42.68 501.25 39.49 498.32 39.69 494.92 C 39.62 491.73 39.87 488.27 41.66 485.54 C 43.36 483.91 45.90 483.80 48.04 483.06 C 53.39 481.75 58.49 479.31 62.63 475.65 C 65.35 473.36 67.68 470.43 71.08 469.12 C 79.23 465.51 89.41 469.84 96.64 463.66 C 100.11 459.68 102.29 454.27 101.84 448.95 C 101.15 442.13 105.19 434.96 101.52 428.51 C 99.12 425.07 94.30 426.77 91.05 424.85 C 87.42 423.51 85.71 419.70 84.71 416.24 C 83.13 411.85 83.64 406.81 85.85 402.73 Z" />
<path fill="#d2d2d2" opacity="1.00" d=" M 502.40 400.29 C 505.66 398.02 509.84 399.02 513.08 400.78 C 517.71 402.21 518.15 407.92 518.18 411.99 C 517.42 417.06 515.70 423.36 510.22 425.15 C 507.11 426.60 502.75 425.31 500.53 428.47 C 498.20 432.61 498.76 437.66 499.79 442.11 C 500.85 446.73 499.22 451.64 501.08 456.12 C 502.42 459.63 504.10 463.60 507.76 465.25 C 514.69 469.03 523.00 466.01 530.20 468.84 C 535.30 470.63 538.28 475.53 542.80 478.26 C 547.65 481.84 553.73 482.72 559.25 484.73 C 562.34 486.97 562.24 491.48 562.30 494.95 C 562.52 500.22 555.68 502.95 551.58 500.42 C 547.44 498.03 542.57 496.39 539.72 492.30 C 536.55 487.77 532.14 483.94 526.81 482.26 C 523.86 481.37 520.90 480.48 517.91 479.76 C 514.69 478.75 510.67 481.54 510.77 484.98 C 510.82 489.07 511.55 493.46 514.36 496.62 C 516.77 499.49 518.87 502.77 522.14 504.76 C 525.27 506.98 528.90 508.67 531.26 511.81 C 534.88 516.50 533.82 523.48 538.30 527.64 C 542.10 531.52 546.08 535.31 550.96 537.82 C 556.11 541.65 562.59 544.53 565.14 550.87 C 566.38 555.03 565.55 559.79 562.94 563.29 C 559.98 563.95 556.97 564.52 553.93 564.44 C 549.60 562.19 544.66 560.17 542.40 555.50 C 537.96 550.35 533.73 544.99 529.13 539.97 C 527.93 538.23 524.92 537.73 523.70 539.70 C 520.67 543.17 520.97 548.44 517.45 551.54 C 515.10 554.16 511.08 554.70 507.95 553.28 C 505.17 552.09 501.55 551.22 500.57 547.94 C 500.17 544.82 499.85 541.27 501.75 538.54 C 503.58 535.79 506.35 533.83 508.21 531.10 C 512.45 524.41 511.31 514.83 505.35 509.54 C 501.05 504.93 495.36 501.62 492.13 496.06 C 487.18 489.56 489.82 480.96 488.26 473.54 C 486.49 466.90 478.40 464.68 476.91 457.95 C 475.13 452.75 475.72 447.20 475.15 441.84 C 473.38 436.45 466.68 435.95 461.95 434.89 C 466.50 427.02 473.07 420.63 477.98 413.03 C 482.81 412.45 486.81 409.48 490.50 406.55 C 494.02 403.64 498.76 403.02 502.40 400.29 Z" />
<path fill="#d2d2d2" opacity="1.00" d=" M 435.72 460.54 C 442.36 455.59 449.75 451.41 454.74 444.60 C 457.87 446.81 462.41 448.29 463.29 452.51 C 464.61 458.19 462.36 463.80 460.51 469.08 C 459.44 474.65 459.70 480.53 460.87 486.08 C 461.89 490.55 465.85 493.13 468.96 496.10 C 472.07 499.74 475.36 503.95 475.27 509.00 C 475.75 514.26 473.50 519.27 470.71 523.59 C 467.50 527.45 462.57 530.08 460.91 535.10 C 458.94 541.21 458.38 547.64 457.44 553.95 C 457.11 556.28 455.62 558.17 454.01 559.79 C 450.97 559.58 447.39 560.36 444.91 558.12 C 439.97 554.13 437.72 547.91 436.39 541.91 C 435.16 538.00 433.60 532.80 428.98 531.91 C 421.53 530.25 414.54 526.90 406.97 525.76 C 400.33 524.62 393.65 521.94 389.35 516.55 C 384.20 508.89 382.97 499.57 379.58 491.16 C 382.55 489.96 385.38 488.46 388.20 486.96 C 391.23 485.78 394.27 484.64 397.19 483.20 C 401.04 488.68 401.56 495.59 404.47 501.47 C 406.20 505.07 410.50 505.58 414.05 505.59 C 417.93 505.26 422.23 505.09 425.64 507.31 C 429.71 509.87 434.13 511.96 437.63 515.33 C 439.69 517.33 442.05 519.27 445.07 519.42 C 447.73 519.54 451.11 520.14 453.01 517.75 C 455.18 514.73 453.75 510.86 452.18 507.93 C 449.79 502.83 442.98 502.52 440.33 497.57 C 435.58 490.84 440.97 483.07 441.30 475.90 C 442.20 470.12 438.74 465.09 435.72 460.54 Z" />
<path fill="#d2d2d2" opacity="1.00" d=" M 139.47 450.44 C 141.53 447.47 145.09 446.14 148.02 444.23 C 153.02 450.78 158.84 456.78 165.32 461.88 C 163.13 465.63 160.39 469.46 160.60 474.03 C 160.46 479.86 163.37 485.19 163.65 490.95 C 163.95 496.71 159.32 501.23 154.42 503.43 C 150.66 505.09 148.83 509.13 147.95 512.91 C 147.45 515.41 148.55 518.46 151.16 519.31 C 155.33 519.94 160.25 519.67 163.27 516.33 C 167.36 512.17 172.65 509.65 177.54 506.61 C 182.43 504.17 187.93 506.49 193.00 504.99 C 196.04 504.56 197.76 501.53 198.70 498.89 C 200.31 493.89 201.65 488.77 204.03 484.05 C 209.70 487.46 216.11 489.28 222.41 491.11 C 219.05 499.56 217.79 508.89 212.65 516.57 C 208.55 521.64 202.34 524.41 196.05 525.56 C 187.53 526.84 179.65 530.49 171.30 532.43 C 167.02 535.08 166.04 540.53 164.78 545.04 C 163.49 550.19 160.89 555.23 156.60 558.51 C 154.09 560.31 150.81 559.57 147.93 559.80 C 146.37 558.14 144.85 556.27 144.54 553.94 C 143.63 547.62 143.05 541.20 141.09 535.10 C 139.44 530.11 134.56 527.46 131.32 523.66 C 128.31 519.07 126.03 513.65 126.78 508.06 C 126.85 504.02 129.44 500.72 131.71 497.61 C 134.08 494.36 138.05 492.57 139.95 488.94 C 141.67 485.93 141.88 482.38 142.05 478.99 C 142.19 474.81 142.37 470.44 140.62 466.54 C 138.75 461.50 137.10 455.58 139.47 450.44 Z" />
<path fill="#d2d2d2" opacity="1.00" d=" M 241.15 500.65 C 243.91 502.53 245.83 505.42 248.65 507.19 C 253.25 509.14 258.49 510.64 261.58 514.88 C 259.33 521.11 261.20 528.53 266.08 533.00 C 268.62 535.55 270.13 538.91 272.62 541.50 C 274.95 544.30 278.14 547.02 278.13 550.98 C 278.24 556.56 275.85 563.22 270.16 565.23 C 265.33 566.19 261.87 562.08 259.62 558.43 C 257.27 554.40 258.36 549.30 255.67 545.43 C 253.31 541.66 249.93 537.52 245.06 537.52 C 241.30 537.06 237.64 538.11 233.96 538.67 C 230.58 538.45 226.12 538.04 224.52 534.53 C 223.42 529.48 225.47 523.72 230.00 521.01 C 233.30 518.34 238.69 517.53 240.03 512.98 C 241.69 509.08 241.71 504.78 241.15 500.65 Z" />
<path fill="#d2d2d2" opacity="1.00" d=" M 353.37 507.16 C 356.16 505.37 358.12 502.56 360.83 500.66 C 360.15 505.71 360.40 511.30 363.40 515.60 C 367.71 519.31 374.41 520.67 376.67 526.46 C 377.96 529.85 378.95 535.14 375.01 537.15 C 367.82 541.07 359.63 534.87 352.45 538.75 C 348.97 541.17 346.19 544.73 344.81 548.75 C 344.05 552.41 343.95 556.44 341.64 559.58 C 339.71 562.10 337.51 565.11 334.01 565.25 C 330.72 565.76 327.93 563.18 326.32 560.60 C 324.24 556.76 322.95 552.00 324.58 547.77 C 326.59 543.88 330.25 541.17 332.50 537.44 C 334.07 534.76 336.36 532.67 338.30 530.30 C 341.29 525.80 342.25 520.01 340.44 514.87 C 343.53 510.62 348.79 509.16 353.37 507.16 Z" />
</g>
<g id="#ffffffff">
<path fill="#ffffff" opacity="1.00" d=" M 281.00 72.93 C 293.05 69.72 305.61 68.55 318.04 69.50 C 334.91 71.19 351.58 74.81 367.66 80.19 C 362.68 84.01 357.53 87.66 352.91 91.91 C 346.79 98.36 341.44 105.60 337.48 113.58 C 333.96 120.64 329.17 127.11 326.78 134.69 C 324.85 142.57 325.00 150.85 322.73 158.67 C 321.87 161.20 320.30 164.70 317.00 164.04 C 310.55 162.88 307.83 154.76 310.09 149.13 C 311.84 143.84 318.42 141.77 319.37 136.08 C 320.10 131.93 316.66 128.22 312.78 127.45 C 307.98 128.17 303.87 131.57 301.82 135.93 C 296.28 110.76 278.86 88.04 255.17 77.51 C 263.72 75.60 272.59 75.50 281.00 72.93 Z" />
<path fill="#ffffff" opacity="1.00" d=" M 237.11 82.17 C 242.35 80.48 247.91 81.79 252.73 84.12 C 271.08 92.70 285.47 109.13 292.17 128.18 C 287.05 125.62 281.04 131.84 282.81 136.99 C 284.33 142.07 290.20 144.07 291.93 149.04 C 294.34 154.71 291.44 162.85 285.02 164.08 C 281.70 164.68 280.11 161.23 279.26 158.67 C 277.01 150.87 277.17 142.60 275.24 134.73 C 272.82 127.11 268.01 120.60 264.48 113.50 C 260.64 105.75 255.44 98.77 249.61 92.42 C 245.79 88.60 241.22 85.64 237.11 82.17 Z" />
<path fill="#ffffff" opacity="1.00" d=" M 382.13 92.10 C 384.23 89.92 386.82 88.32 389.54 87.05 C 396.86 89.96 403.77 93.77 410.74 97.42 C 412.84 104.08 413.59 111.23 412.54 118.17 C 411.16 130.75 407.51 142.97 402.79 154.68 C 396.32 169.80 385.89 182.98 373.64 193.84 C 371.11 189.20 369.24 184.22 368.30 179.01 C 367.14 172.33 361.88 167.26 355.96 164.48 C 350.80 162.48 345.04 163.84 340.32 166.36 C 340.84 161.52 341.86 156.76 342.53 151.94 C 344.13 141.14 348.42 130.77 355.05 122.09 C 358.72 116.21 363.28 110.99 367.31 105.37 C 371.33 99.97 377.56 96.94 382.13 92.10 Z" />
<path fill="#ffffff" opacity="1.00" d=" M 175.38 109.46 C 187.86 101.38 200.61 93.43 214.55 88.09 C 218.64 90.28 221.45 94.09 225.18 96.76 C 228.43 99.13 231.66 101.61 234.19 104.77 C 240.54 113.19 247.24 121.43 252.42 130.65 C 258.65 141.51 259.90 154.20 261.66 166.35 C 256.62 163.66 250.26 162.27 244.94 164.99 C 241.06 167.26 237.23 170.15 235.29 174.33 C 233.26 178.63 233.13 183.55 231.18 187.89 C 228.08 177.46 222.80 167.62 215.46 159.55 C 206.12 150.06 194.93 141.93 182.05 138.05 C 168.25 133.77 153.21 132.70 139.21 136.68 C 142.24 133.93 144.77 130.64 148.06 128.17 C 156.94 121.62 165.48 114.47 175.38 109.46 Z" />
<path fill="#ffffff" opacity="1.00" d=" M 419.24 102.11 C 433.39 110.68 447.82 119.57 458.38 132.57 C 463.58 138.77 467.22 146.05 471.02 153.15 C 476.54 163.60 481.91 174.33 484.47 185.95 C 486.14 192.95 488.26 199.86 489.91 206.84 C 487.53 214.64 484.50 222.70 478.29 228.31 C 465.91 239.87 450.46 247.68 434.61 253.31 C 424.51 256.76 413.82 259.12 403.10 258.30 C 398.95 258.08 395.05 256.54 391.01 255.74 C 392.75 253.19 396.00 252.27 397.83 249.79 C 403.36 243.30 402.98 233.87 400.60 226.16 C 397.58 217.07 392.68 207.86 384.23 202.78 C 382.29 201.54 380.32 200.36 378.43 199.05 C 388.78 190.08 397.67 179.38 404.43 167.46 C 409.47 158.69 412.77 149.05 415.60 139.37 C 418.83 127.30 421.34 114.61 419.24 102.11 Z" />
<path fill="#ffffff" opacity="1.00" d=" M 134.93 145.57 C 152.13 138.87 171.95 140.52 188.52 148.25 C 200.69 154.63 211.91 163.80 218.52 176.04 C 222.21 182.53 224.55 189.70 226.11 196.98 C 222.23 200.43 217.47 202.67 213.38 205.83 C 209.36 208.16 205.07 209.96 201.00 212.18 C 179.74 223.07 160.09 237.49 144.72 255.89 C 140.01 252.67 136.27 248.16 133.77 243.05 C 128.00 233.20 122.87 222.58 114.09 214.97 C 108.25 209.88 101.83 204.45 93.88 203.40 C 88.60 203.36 83.19 205.78 79.88 209.94 C 76.88 214.63 76.03 220.65 77.45 226.01 C 78.03 228.06 80.02 228.94 81.94 229.31 C 82.74 228.96 83.53 228.62 84.33 228.30 C 86.10 224.16 85.26 219.36 87.31 215.31 C 89.45 213.20 92.70 212.06 95.61 213.18 C 101.14 215.66 105.75 219.69 110.04 223.89 C 115.25 228.92 118.69 235.40 122.34 241.58 C 127.29 250.18 130.37 259.68 135.08 268.40 C 126.27 279.21 121.62 292.55 117.06 305.53 C 110.18 299.56 102.64 294.10 97.48 286.45 C 95.08 282.59 91.20 279.92 88.99 275.93 C 84.22 267.47 79.99 258.62 77.76 249.12 C 76.42 243.78 75.89 238.28 74.69 232.91 C 73.31 224.69 71.84 215.87 75.15 207.90 C 77.14 203.29 78.04 197.67 82.47 194.63 C 86.43 191.82 91.55 193.40 95.92 192.03 C 100.03 189.12 102.66 184.62 105.65 180.66 C 107.39 178.42 109.78 176.66 110.89 173.97 C 113.37 168.69 117.43 164.42 120.41 159.46 C 122.54 156.00 124.84 152.61 127.58 149.60 C 129.62 147.63 132.41 146.74 134.93 145.57 Z" />
<path fill="#ffffff" opacity="1.00" d=" M 289.46 175.53 C 291.85 174.40 294.57 175.94 295.79 178.06 C 297.95 181.42 300.13 184.95 300.93 188.92 C 301.53 196.02 293.66 201.78 286.96 200.04 C 282.42 199.09 279.99 194.64 278.43 190.67 C 277.40 187.80 277.12 183.82 279.84 181.77 C 282.78 179.31 286.05 177.26 289.46 175.53 Z" />
<path fill="#ffffff" opacity="1.00" d=" M 268.36 185.54 C 269.95 184.58 272.03 184.36 273.63 185.45 C 276.51 188.26 273.24 194.92 269.10 193.07 C 265.92 192.08 265.56 187.20 268.36 185.54 Z" />
<path fill="#ffffff" opacity="1.00" d=" M 272.43 196.49 C 274.95 195.58 278.31 195.59 280.26 197.72 C 285.06 201.94 286.21 208.50 289.09 213.93 C 291.14 218.12 287.94 222.41 285.82 225.88 C 283.49 230.08 277.96 233.25 273.35 230.69 C 267.03 227.52 260.12 221.72 261.04 213.87 C 262.01 206.84 266.05 199.89 272.43 196.49 Z" />
<path fill="#ffffff" opacity="1.00" d=" M 472.45 242.27 C 481.41 235.92 490.04 228.11 493.77 217.46 C 497.20 234.50 501.70 251.43 502.57 268.87 C 504.79 287.54 504.74 306.47 502.60 325.15 C 500.53 338.92 497.58 352.52 494.79 366.15 C 494.54 367.21 494.35 368.75 492.93 368.86 C 482.88 371.73 472.14 370.34 462.17 367.81 C 447.67 363.85 433.46 358.14 421.27 349.22 C 422.66 344.56 420.97 339.76 420.52 335.08 C 419.69 327.00 416.71 319.31 412.73 312.28 C 409.28 306.63 404.29 302.11 398.95 298.28 C 397.93 286.64 396.43 275.04 393.61 263.68 C 400.16 265.64 407.13 266.26 413.91 265.25 C 423.40 264.45 432.62 261.74 441.51 258.42 C 452.39 254.23 462.86 248.90 472.45 242.27 Z" />
<path fill="#ffffff" opacity="1.00" d=" M 170.29 243.22 C 180.08 235.31 190.44 227.99 201.72 222.37 L 202.94 221.81 C 199.64 229.97 197.84 240.10 202.84 247.97 C 206.07 253.49 212.66 255.02 217.64 258.43 C 221.07 260.70 225.10 263.51 225.43 268.01 C 225.82 273.74 222.99 279.28 218.99 283.25 C 200.95 283.45 183.07 288.97 168.05 298.98 C 152.54 309.43 138.33 322.40 128.54 338.48 C 125.23 343.85 122.27 349.43 119.58 355.13 C 119.51 350.77 118.14 346.49 118.58 342.10 C 119.04 337.65 120.57 333.40 121.05 328.95 C 121.56 322.92 122.41 316.81 124.81 311.21 C 128.81 300.19 132.29 288.78 138.80 278.91 C 147.79 265.79 158.19 253.58 170.29 243.22 Z" />
<path fill="#ffffff" opacity="1.00" d=" M 298.44 226.48 C 306.66 225.27 314.31 229.77 321.11 233.82 C 326.58 236.73 330.67 242.66 330.37 248.99 C 330.04 256.64 326.07 263.56 321.48 269.48 C 316.68 275.58 309.08 280.05 301.12 279.32 C 297.10 279.15 294.07 276.07 291.93 272.97 C 289.66 269.82 290.20 265.45 287.63 262.48 C 284.38 258.62 281.53 254.12 280.97 249.01 C 279.84 238.48 288.45 228.67 298.44 226.48 Z" />
<path fill="#ffffff" opacity="1.00" d=" M 266.41 237.46 C 269.07 236.98 271.71 238.76 272.83 241.12 C 274.74 244.85 275.50 249.04 276.99 252.94 C 278.72 257.18 277.21 262.75 273.27 265.23 C 270.35 267.52 266.42 267.34 262.93 267.06 C 259.61 267.01 256.57 264.33 256.02 261.07 C 254.49 254.60 256.55 247.73 260.31 242.40 C 261.85 240.28 263.74 238.08 266.41 237.46 Z" />
<path fill="#ffffff" opacity="1.00" d=" M 336.27 259.36 C 339.33 258.40 342.31 260.70 343.81 263.21 C 346.01 266.82 347.39 271.58 345.53 275.61 C 343.38 279.97 337.10 280.19 333.55 277.53 C 330.94 275.88 330.16 272.66 329.27 269.91 C 327.90 265.18 332.29 261.02 336.27 259.36 Z" />
<path fill="#ffffff" opacity="1.00" d=" M 376.51 269.08 C 376.30 264.80 379.63 261.66 382.86 259.44 C 385.59 268.92 387.72 278.62 388.63 288.45 C 382.58 283.69 376.57 277.26 376.51 269.08 Z" />
<path fill="#ffffff" opacity="1.00" d=" M 272.37 271.34 C 276.44 270.10 281.30 270.44 284.59 273.38 C 290.46 277.97 291.87 285.91 291.97 292.94 C 291.81 299.13 290.69 305.25 289.40 311.29 C 288.22 315.68 291.54 319.67 290.94 324.06 C 290.62 330.94 285.61 336.38 280.43 340.36 C 276.97 343.07 272.21 345.17 267.89 343.27 C 261.78 340.66 258.98 333.30 259.95 327.02 C 260.34 320.99 264.09 315.86 265.04 310.01 C 264.07 302.82 258.59 296.56 259.97 288.98 C 261.61 281.91 265.06 274.06 272.37 271.34 Z" />
<path fill="#ffffff" opacity="1.00" d=" M 321.22 279.36 C 332.62 276.81 343.05 288.91 341.37 299.86 C 341.02 305.90 337.62 311.15 336.44 316.97 C 337.28 320.95 339.44 324.80 338.70 328.99 C 337.28 336.28 333.78 343.25 328.32 348.34 C 324.64 351.91 320.45 356.06 314.97 356.05 C 309.70 356.14 306.02 351.70 302.80 348.13 C 298.52 342.96 299.47 335.83 297.13 329.87 C 293.93 320.21 291.93 308.75 297.74 299.65 C 301.37 294.42 304.94 288.96 309.85 284.82 C 313.33 282.46 317.24 280.71 321.22 279.36 Z" />
<path fill="#ffffff" opacity="1.00" d=" M 167.82 307.79 C 180.53 298.56 195.55 292.28 211.25 290.84 C 205.61 297.13 198.02 301.22 192.51 307.64 C 168.62 314.63 149.05 332.13 135.84 352.82 C 130.09 361.46 126.00 371.06 122.71 380.87 C 122.11 377.25 121.13 373.65 121.14 369.96 C 125.56 357.93 131.49 346.41 138.82 335.90 C 146.81 324.98 156.92 315.73 167.82 307.79 Z" />
<path fill="#ffffff" opacity="1.00" d=" M 168.54 327.60 C 174.03 323.45 180.02 319.89 186.49 317.51 C 183.39 323.99 181.83 331.04 181.03 338.15 C 180.64 342.20 178.93 346.80 181.54 350.46 C 184.79 356.17 190.66 359.58 196.36 362.44 C 200.30 364.51 205.04 363.91 208.96 366.04 C 212.36 367.68 214.36 371.03 216.72 373.82 C 215.86 379.87 215.57 386.16 212.72 391.71 C 210.17 399.01 205.88 405.69 204.69 413.43 C 203.42 420.58 202.06 428.09 203.87 435.26 C 205.17 439.02 206.15 442.88 207.58 446.59 C 211.32 452.42 217.89 455.05 223.95 457.75 C 222.10 469.05 223.63 480.52 225.30 491.73 C 224.58 491.58 223.13 491.27 222.41 491.11 C 216.11 489.28 209.70 487.46 204.03 484.05 C 198.29 480.50 191.37 479.76 185.49 476.50 C 182.12 474.62 178.61 472.94 175.45 470.71 C 171.97 467.89 168.93 464.55 165.32 461.88 C 158.84 456.78 153.02 450.78 148.02 444.23 C 145.99 440.76 143.42 437.64 141.47 434.12 C 138.27 426.45 134.67 418.98 130.77 411.64 C 128.60 407.08 128.36 401.95 127.10 397.12 C 125.86 393.49 127.76 389.89 128.58 386.41 C 135.00 363.14 149.29 342.14 168.54 327.60 Z" />
<path fill="#ffffff" opacity="1.00" d=" M 286.29 343.39 C 293.38 342.75 298.29 349.37 300.71 355.24 C 304.26 363.99 306.48 373.45 306.06 382.94 C 306.36 389.61 302.04 395.22 297.85 399.93 C 294.67 403.45 290.90 406.95 286.11 407.94 C 280.52 409.01 274.84 405.59 272.34 400.65 C 270.27 397.08 270.12 392.87 269.07 388.97 C 267.26 381.81 264.95 374.45 266.31 366.99 C 267.69 360.74 271.18 355.18 275.29 350.36 C 278.13 347.00 281.92 344.28 286.29 343.39 Z" />
<path fill="#ffffff" opacity="1.00" d=" M 409.66 360.27 C 412.27 358.72 414.76 356.97 417.17 355.11 C 431.12 365.15 447.36 371.57 463.99 375.59 C 473.26 377.67 482.91 378.46 492.28 376.51 C 491.73 378.25 491.21 380.00 490.70 381.76 C 477.14 385.89 462.50 384.10 448.91 380.91 C 434.63 376.90 420.01 371.35 409.66 360.27 Z" />
<path fill="#ffffff" opacity="1.00" d=" M 309.34 359.44 C 312.27 358.36 314.69 361.28 314.40 364.07 C 314.93 367.01 311.49 369.93 308.82 368.26 C 305.23 366.54 306.07 360.96 309.34 359.44 Z" />
<path fill="#ffffff" opacity="1.00" d=" M 328.44 360.46 C 332.97 359.69 337.51 362.22 340.56 365.42 C 345.75 371.42 345.58 379.95 344.53 387.36 C 343.70 392.50 340.82 398.68 334.95 399.21 C 328.34 400.22 323.24 395.19 317.22 393.58 C 312.77 392.19 310.73 387.24 310.78 382.90 C 310.14 378.47 311.64 373.96 314.71 370.73 C 318.60 366.57 322.58 361.68 328.44 360.46 Z" />
<path fill="#ffffff" opacity="1.00" d=" M 391.18 367.19 C 394.56 364.58 398.95 364.38 402.96 363.49 C 410.48 371.92 420.13 378.32 430.69 382.29 C 441.95 386.91 453.86 390.04 466.01 390.93 C 473.41 390.83 480.94 391.57 488.22 389.87 C 484.40 397.42 482.37 405.76 477.98 413.03 C 473.07 420.63 466.50 427.02 461.95 434.89 C 459.73 438.26 457.47 441.62 454.74 444.60 C 449.75 451.41 442.36 455.59 435.72 460.54 C 429.30 464.93 422.37 468.53 416.13 473.18 C 410.10 476.51 404.69 481.16 398.04 483.21 C 387.04 480.20 376.51 474.03 369.89 464.53 C 370.66 460.70 374.78 459.34 377.85 457.79 C 384.15 455.01 391.32 452.29 394.74 445.85 C 396.52 439.67 399.49 433.62 398.98 427.03 C 398.44 418.14 397.27 408.97 393.09 400.97 C 391.48 397.42 390.20 393.73 388.63 390.16 C 386.39 385.08 385.87 379.45 385.48 373.98 C 386.93 371.40 388.88 369.06 391.18 367.19 Z" />
<path fill="#ffffff" opacity="1.00" d=" M 313.30 399.44 C 318.09 398.34 323.82 400.12 326.28 404.58 C 329.14 409.52 330.20 415.32 330.56 420.96 C 330.57 429.20 323.95 435.37 317.36 439.27 C 313.12 441.89 307.71 440.85 303.60 438.50 C 300.52 436.59 297.87 434.08 294.82 432.14 C 291.94 430.50 290.36 427.22 290.02 424.03 C 291.03 417.53 293.81 411.17 298.47 406.46 C 302.52 402.63 307.78 400.16 313.30 399.44 Z" />
<path fill="#ffffff" opacity="1.00" d=" M 265.34 401.44 C 269.99 400.47 272.17 408.07 267.66 409.63 C 262.76 411.11 259.87 402.41 265.34 401.44 Z" />
<path fill="#ffffff" opacity="1.00" d=" M 272.26 410.31 C 275.56 409.31 278.83 411.75 280.37 414.53 C 282.25 417.81 283.91 422.16 281.65 425.68 C 280.05 428.89 275.64 428.73 272.99 427.02 C 269.62 424.85 266.45 421.24 266.95 416.95 C 266.80 413.82 269.52 411.31 272.26 410.31 Z" />
<path fill="#ffffff" opacity="1.00" d=" M 285.46 434.47 C 288.90 434.36 291.94 436.38 294.93 437.82 C 300.51 440.51 304.64 445.86 305.92 451.92 C 306.49 455.33 304.49 459.12 301.14 460.24 C 297.52 461.91 293.56 460.32 290.15 458.90 C 284.50 456.79 281.51 451.04 279.15 445.88 C 276.62 441.25 280.23 434.86 285.46 434.47 Z" />
<path fill="#ffffff" opacity="1.00" d=" M 315.43 444.36 C 317.25 442.97 320.07 443.60 321.46 445.30 C 323.48 448.24 321.22 451.60 320.43 454.56 C 319.57 457.83 316.08 461.46 312.52 459.42 C 309.55 458.18 309.98 454.59 309.83 451.97 C 309.38 448.35 312.91 446.19 315.43 444.36 Z" />
<path fill="#ffffff" opacity="1.00" d=" M 230.71 461.87 L 231.68 462.93 C 232.22 465.47 232.06 468.26 233.40 470.58 C 237.61 477.06 235.94 485.14 236.43 492.43 C 235.88 492.64 234.78 493.07 234.23 493.28 C 232.47 493.62 232.46 491.07 232.20 489.90 C 230.92 480.63 229.58 471.22 230.71 461.87 Z" />
<path fill="#ffffff" opacity="1.00" d=" M 364.58 496.60 C 366.99 488.83 364.15 480.32 367.36 472.74 C 372.96 479.08 380.07 484.42 388.20 486.96 C 385.38 488.46 382.55 489.96 379.58 491.16 C 375.04 493.19 370.31 494.75 365.59 496.28 L 364.58 496.60 Z" />
</g>
<g id="#939393ff">
<path fill="#939393" opacity="1.00" d=" M 244.94 164.99 C 250.26 162.27 256.62 163.66 261.66 166.35 C 262.38 171.54 262.90 176.77 262.73 182.02 C 262.56 186.80 261.05 191.38 259.87 195.98 C 258.59 192.46 258.16 188.70 256.80 185.22 C 255.87 182.60 251.96 182.02 250.42 184.37 C 248.09 187.81 249.31 192.20 250.11 195.94 C 251.77 201.75 254.21 207.34 256.95 212.72 C 254.91 222.77 254.15 233.02 252.56 243.14 C 251.61 254.05 251.44 265.04 251.89 275.98 C 252.94 284.43 254.10 292.86 255.02 301.32 C 246.19 299.56 236.76 299.79 228.41 303.42 C 225.52 304.34 223.81 308.49 226.40 310.62 C 228.79 312.75 232.06 311.42 234.74 310.71 C 241.69 308.61 249.17 308.83 256.12 310.79 C 256.18 311.32 256.29 312.36 256.35 312.89 C 244.39 313.53 232.77 317.10 221.85 321.86 C 215.90 324.68 209.19 328.36 207.37 335.22 C 206.58 337.69 209.43 340.49 211.85 339.22 C 215.66 337.01 218.46 333.39 222.45 331.43 C 232.86 326.02 244.38 322.97 256.03 321.81 C 255.83 322.80 255.64 323.80 255.46 324.80 C 246.47 326.34 237.58 330.81 232.34 338.47 C 230.70 340.78 231.14 344.69 234.11 345.63 C 237.03 346.52 239.02 343.62 240.81 341.84 C 244.33 337.80 249.30 335.45 254.34 333.90 C 252.75 353.23 250.64 372.82 253.53 392.14 C 257.08 411.49 260.82 431.61 272.30 448.08 C 264.77 459.14 259.85 472.42 260.49 485.93 C 260.65 488.93 261.42 492.94 264.96 493.59 C 268.00 493.91 269.66 490.66 269.32 488.02 C 268.43 477.03 271.68 466.03 277.28 456.63 C 277.90 457.47 278.52 458.31 279.15 459.16 C 276.61 466.44 275.11 474.25 276.25 481.96 C 276.94 485.67 282.79 487.31 284.33 483.31 C 285.49 478.28 283.97 472.86 285.90 467.91 C 290.11 471.84 293.26 476.65 296.73 481.20 C 298.60 484.20 303.40 484.20 305.27 481.19 C 308.88 476.35 312.36 471.40 316.69 467.16 L 316.31 467.82 C 317.02 471.50 317.36 475.25 317.21 479.00 C 317.13 481.14 317.11 483.79 319.15 485.12 C 321.72 486.77 325.09 484.65 325.76 481.94 C 326.89 474.23 325.37 466.43 322.86 459.15 C 323.48 458.31 324.09 457.47 324.71 456.63 C 329.43 464.62 332.58 473.70 332.79 483.03 C 332.85 485.65 332.34 488.33 333.04 490.90 C 333.65 493.20 336.73 494.43 338.68 492.92 C 341.27 491.24 341.30 487.79 341.57 485.05 C 341.89 471.83 337.09 458.90 329.70 448.08 C 339.59 433.86 343.85 416.77 346.98 399.99 C 351.96 378.39 349.43 356.08 347.73 334.26 C 352.74 335.64 357.75 337.83 361.20 341.86 C 362.98 343.64 364.99 346.54 367.91 345.62 C 370.59 344.77 371.31 341.27 369.94 339.03 C 365.23 330.59 355.60 326.55 346.54 324.79 C 346.35 323.80 346.16 322.81 345.97 321.82 C 358.18 322.82 370.01 326.58 380.85 332.20 C 383.97 333.95 386.19 336.86 389.05 338.96 C 390.45 340.12 392.55 339.93 394.01 338.99 C 395.95 336.24 394.09 332.87 392.54 330.43 C 387.80 324.26 380.09 321.73 373.12 319.01 C 364.33 315.56 355.00 313.91 345.65 312.88 C 345.71 312.36 345.82 311.32 345.87 310.81 C 351.14 309.48 356.63 308.32 362.06 309.36 C 365.70 309.83 369.13 311.37 372.79 311.63 C 375.85 311.62 377.96 307.79 375.83 305.37 C 372.76 301.78 367.59 301.56 363.28 300.67 C 357.85 299.55 352.37 300.55 346.97 301.32 C 347.91 293.22 348.87 285.13 350.01 277.06 C 350.66 266.04 350.33 254.96 349.54 243.96 C 347.93 233.55 347.15 223.02 345.01 212.70 C 349.29 205.50 351.89 197.28 352.91 188.99 C 353.44 185.62 350.04 181.06 346.51 183.57 C 343.18 187.13 344.16 192.67 342.09 196.92 C 341.54 194.19 340.87 191.49 340.27 188.77 C 338.42 181.43 339.41 173.77 340.32 166.36 C 345.04 163.84 350.80 162.48 355.96 164.48 C 361.88 167.26 367.14 172.33 368.30 179.01 C 369.24 184.22 371.11 189.20 373.64 193.84 C 374.72 195.98 376.48 197.69 378.43 199.05 C 380.32 200.36 382.29 201.54 384.23 202.78 C 392.68 207.86 397.58 217.07 400.60 226.16 C 402.98 233.87 403.36 243.30 397.83 249.79 C 396.00 252.27 392.75 253.19 391.01 255.74 C 390.99 255.50 390.95 255.01 390.93 254.76 C 388.14 256.13 385.41 257.65 382.86 259.44 C 379.63 261.66 376.30 264.80 376.51 269.08 C 376.57 277.26 382.58 283.69 388.63 288.45 L 388.83 289.27 C 392.44 292.00 395.18 295.73 398.95 298.28 C 404.29 302.11 409.28 306.63 412.73 312.28 C 416.71 319.31 419.69 327.00 420.52 335.08 C 420.97 339.76 422.66 344.56 421.27 349.22 C 420.00 351.25 418.52 353.13 417.17 355.11 C 414.76 356.97 412.27 358.72 409.66 360.27 C 407.51 361.50 405.35 362.79 402.96 363.49 C 398.95 364.38 394.56 364.58 391.18 367.19 C 388.88 369.06 386.93 371.40 385.48 373.98 C 385.87 379.45 386.39 385.08 388.63 390.16 C 390.20 393.73 391.48 397.42 393.09 400.97 C 397.27 408.97 398.44 418.14 398.98 427.03 C 399.49 433.62 396.52 439.67 394.74 445.85 C 391.32 452.29 384.15 455.01 377.85 457.79 C 374.78 459.34 370.66 460.70 369.89 464.53 C 369.92 467.50 369.08 470.31 367.36 472.74 C 364.15 480.32 366.99 488.83 364.58 496.60 L 365.59 496.28 C 364.08 497.82 362.59 499.39 360.83 500.66 C 358.12 502.56 356.16 505.37 353.37 507.16 C 348.79 509.16 343.53 510.62 340.44 514.87 C 336.21 519.52 331.89 524.62 330.91 531.06 C 329.81 537.73 326.81 544.28 321.59 548.71 C 318.11 551.86 313.08 550.68 308.83 551.38 C 306.31 551.30 304.29 552.91 302.08 553.84 C 299.60 554.55 297.67 552.42 295.48 551.70 C 291.30 550.79 286.86 551.56 282.78 550.25 C 275.97 546.31 272.36 538.52 271.08 531.02 C 270.10 524.60 265.78 519.53 261.58 514.88 C 258.49 510.64 253.25 509.14 248.65 507.19 C 245.83 505.42 243.91 502.53 241.15 500.65 C 238.54 499.40 237.44 496.83 236.80 494.17 C 235.71 494.36 234.86 494.07 234.23 493.28 C 234.78 493.07 235.88 492.64 236.43 492.43 C 235.94 485.14 237.61 477.06 233.40 470.58 C 232.06 468.26 232.22 465.47 231.68 462.93 L 230.71 461.87 C 228.92 459.81 226.36 458.82 223.95 457.75 C 217.89 455.05 211.32 452.42 207.58 446.59 C 206.15 442.88 205.17 439.02 203.87 435.26 C 202.06 428.09 203.42 420.58 204.69 413.43 C 205.88 405.69 210.17 399.01 212.72 391.71 C 215.57 386.16 215.86 379.87 216.72 373.82 C 214.36 371.03 212.36 367.68 208.96 366.04 C 205.04 363.91 200.30 364.51 196.36 362.44 C 190.66 359.58 184.79 356.17 181.54 350.46 C 178.93 346.80 180.64 342.20 181.03 338.15 C 181.83 331.04 183.39 323.99 186.49 317.51 C 188.16 314.03 190.04 310.62 192.51 307.64 C 198.02 301.22 205.61 297.13 211.25 290.84 C 213.94 288.42 216.50 285.87 218.99 283.25 C 222.99 279.28 225.82 273.74 225.43 268.01 C 225.10 263.51 221.07 260.70 217.64 258.43 C 212.66 255.02 206.07 253.49 202.84 247.97 C 197.84 240.10 199.64 229.97 202.94 221.81 L 201.72 222.37 L 201.22 222.60 C 202.24 221.88 203.31 221.13 203.75 219.89 C 206.22 214.74 209.30 209.86 213.38 205.83 C 217.47 202.67 222.23 200.43 226.11 196.98 C 228.50 194.40 229.69 191.01 231.18 187.89 C 233.13 183.55 233.26 178.63 235.29 174.33 C 237.23 170.15 241.06 167.26 244.94 164.99 Z" />
</g>
</svg>
