<?xml version="1.0" encoding="UTF-8" ?>
<!DOCTYPE svg PUBLIC "-//W3C//DTD SVG 1.1//EN" "http://www.w3.org/Graphics/SVG/1.1/DTD/svg11.dtd">
<svg width="600pt" height="600pt" viewBox="0 0 600 600" version="1.1" xmlns="http://www.w3.org/2000/svg">
<g id="#abadb6ff">
<path fill="#abadb6" opacity="1.00" d=" M 154.28 56.22 C 160.37 54.54 166.94 53.03 173.08 55.38 C 178.73 55.19 184.26 56.57 189.50 58.62 C 196.84 60.88 204.24 63.19 210.88 67.14 C 220.29 71.09 228.86 76.68 237.32 82.30 C 240.18 84.88 243.35 87.07 246.40 89.42 C 246.45 89.46 246.55 89.55 246.60 89.59 C 248.65 91.41 250.57 93.37 252.41 95.41 C 252.45 95.46 252.53 95.56 252.57 95.61 C 256.47 100.67 260.47 105.69 263.42 111.39 C 263.46 111.45 263.52 111.56 263.56 111.62 C 267.98 121.48 275.81 130.21 276.42 141.42 C 276.43 141.49 276.45 141.63 276.46 141.70 C 277.85 148.69 277.23 156.49 281.28 162.67 C 282.35 164.50 284.84 164.24 286.59 163.79 C 291.92 161.06 294.24 153.98 291.58 148.66 C 291.54 148.58 291.47 148.41 291.44 148.33 C 290.06 144.05 285.26 142.64 283.51 138.61 C 279.97 133.52 285.80 126.38 291.50 127.38 C 293.26 129.40 296.16 129.91 297.79 132.05 C 300.89 135.28 299.10 140.19 300.99 143.93 C 301.85 142.19 301.90 140.21 302.15 138.32 C 302.20 134.66 304.01 131.20 307.39 129.56 C 307.44 129.53 307.55 129.46 307.60 129.43 C 309.43 128.50 311.32 126.94 313.52 127.46 C 317.83 128.94 321.42 134.33 318.49 138.60 C 316.74 142.65 311.90 144.06 310.54 148.38 C 310.51 148.44 310.46 148.55 310.43 148.61 C 308.26 153.19 309.39 159.36 313.56 162.49 C 315.49 164.58 319.79 164.90 321.14 162.01 C 324.72 155.87 324.20 148.42 325.55 141.63 C 325.56 141.56 325.58 141.42 325.59 141.35 C 326.21 130.16 334.02 121.45 338.46 111.62 C 338.49 111.57 338.55 111.45 338.58 111.40 C 341.52 105.69 345.52 100.67 349.43 95.61 C 349.47 95.56 349.55 95.46 349.59 95.41 C 354.69 89.36 361.47 85.16 367.56 80.22 C 370.78 78.19 374.18 76.47 377.29 74.25 C 382.38 70.69 388.35 68.77 393.75 65.75 C 400.73 61.79 408.66 60.11 416.14 57.36 C 420.26 55.86 424.63 55.36 428.99 55.36 C 435.09 53.05 441.63 54.52 447.67 56.24 C 450.57 58.00 453.48 59.88 454.95 63.07 C 459.31 67.43 461.77 73.75 461.11 79.92 C 460.89 82.67 459.25 85.42 456.69 86.56 C 449.57 89.42 441.80 86.59 435.07 83.95 C 430.77 82.51 426.76 79.59 422.03 80.00 C 416.25 80.07 409.93 78.09 404.63 81.30 C 399.57 83.16 394.34 84.51 389.55 87.06 C 385.39 88.68 382.17 91.80 379.17 95.00 C 373.49 98.98 367.99 103.44 364.34 109.45 C 360.33 114.13 356.97 119.27 353.56 124.38 C 353.52 124.43 353.44 124.54 353.40 124.59 C 349.28 130.15 346.18 136.62 344.52 143.37 C 344.51 143.44 344.48 143.56 344.46 143.62 C 344.22 144.50 343.75 146.25 343.51 147.12 C 343.46 147.32 343.35 147.70 343.30 147.90 C 342.41 154.28 340.91 160.57 340.12 166.98 C 337.82 176.68 338.68 186.91 342.10 196.22 C 342.62 201.83 343.23 207.50 345.04 212.87 C 346.94 224.20 347.96 235.63 349.75 246.98 C 349.98 256.29 349.76 265.61 349.90 274.93 C 350.07 280.39 348.04 285.62 347.87 291.06 C 347.95 294.51 346.46 297.79 346.92 301.26 C 346.72 304.53 346.28 307.77 345.89 311.02 C 345.83 311.50 345.72 312.46 345.66 312.94 C 345.37 315.92 345.59 318.91 345.87 321.88 C 345.98 322.91 346.19 323.93 346.49 324.93 C 347.27 328.01 347.29 331.21 347.77 334.33 C 347.83 337.40 347.73 340.49 348.37 343.51 C 349.47 349.38 348.12 355.42 349.47 361.26 C 351.21 379.82 347.70 398.31 343.07 416.22 C 340.61 427.54 335.94 438.38 329.60 448.04 C 328.22 451.05 326.62 453.98 324.68 456.67 C 324.01 457.46 323.33 458.25 322.73 459.09 C 321.07 461.96 319.06 464.61 316.74 466.97 C 314.59 469.08 312.82 471.54 310.68 473.65 C 308.01 476.40 306.72 480.29 303.63 482.64 C 301.88 483.00 300.03 483.08 298.30 482.67 C 295.33 480.19 293.96 476.41 291.31 473.66 C 289.19 471.54 287.43 469.12 285.30 467.02 C 282.97 464.64 280.92 462.00 279.30 459.10 C 278.71 458.22 278.00 457.45 277.32 456.67 C 275.37 453.98 273.76 451.05 272.42 448.03 C 271.78 446.34 270.63 444.96 269.57 443.54 C 260.18 427.74 257.17 409.32 253.58 391.56 C 252.24 380.14 251.22 368.47 253.14 357.04 C 253.34 352.54 252.78 347.98 253.64 343.52 C 254.32 340.42 254.13 337.25 254.27 334.12 C 254.70 331.08 254.72 327.96 255.52 324.99 C 255.84 323.97 256.05 322.93 256.14 321.88 C 256.40 318.91 256.62 315.92 256.33 312.95 C 256.28 312.47 256.17 311.51 256.11 311.02 C 255.71 307.78 255.27 304.53 255.09 301.27 C 254.89 296.08 254.06 290.93 253.50 285.76 C 251.34 277.33 252.39 268.61 252.16 260.02 C 252.37 254.30 251.54 248.50 252.86 242.87 C 254.35 232.89 255.24 222.84 256.95 212.89 C 258.82 207.49 259.32 201.77 259.94 196.12 C 263.24 186.88 264.33 176.67 261.92 167.06 C 261.00 160.62 259.68 154.26 258.68 147.86 C 258.64 147.68 258.54 147.33 258.50 147.15 C 258.28 146.32 257.85 144.67 257.63 143.84 C 257.58 143.67 257.49 143.32 257.44 143.15 C 256.44 139.84 255.65 136.40 253.80 133.42 C 252.03 130.49 251.12 127.03 248.60 124.59 C 248.56 124.54 248.48 124.43 248.44 124.38 C 244.17 117.50 239.02 111.28 234.24 104.76 C 231.61 101.70 228.49 99.07 225.18 96.77 C 221.29 94.28 218.86 89.99 214.54 88.08 C 208.08 84.41 200.77 82.92 194.07 79.87 C 189.10 78.80 184.04 80.22 179.02 79.99 C 175.31 79.76 172.24 82.10 168.84 83.14 C 163.87 85.45 158.55 87.09 153.10 87.76 C 148.79 88.07 143.47 87.08 141.50 82.70 C 139.39 75.79 142.07 68.03 147.08 63.05 C 148.50 59.83 151.45 58.05 154.28 56.22 M 288.25 176.19 C 284.63 178.54 280.68 180.66 278.02 184.16 C 276.71 188.15 279.00 191.85 280.82 195.23 C 282.15 197.98 285.25 199.06 287.90 200.11 C 292.91 200.87 297.20 197.69 299.99 193.84 C 301.73 187.88 298.32 182.53 295.39 177.66 C 293.99 175.15 290.57 175.47 288.25 176.19 M 266.74 189.03 C 266.26 192.28 270.90 194.89 273.03 191.94 C 274.74 190.87 274.08 188.74 274.09 187.08 C 273.09 186.29 272.38 184.82 270.96 184.80 C 268.64 184.27 266.52 186.85 266.74 189.03 M 275.20 196.22 C 271.97 196.27 269.45 198.14 267.47 200.54 C 261.95 205.63 260.64 213.67 262.05 220.76 C 265.64 226.47 271.92 231.90 279.07 231.16 C 284.41 229.41 287.27 224.00 289.11 219.08 C 290.15 214.43 286.88 210.66 285.64 206.45 C 284.15 201.77 280.55 196.44 275.20 196.22 M 296.18 227.17 C 287.71 230.13 281.65 238.11 280.69 246.95 C 281.34 253.62 285.08 259.63 289.54 264.51 C 289.53 270.40 293.42 275.80 298.46 278.61 C 304.47 280.74 310.64 277.81 315.82 274.84 C 319.17 272.18 321.82 268.82 324.38 265.43 C 328.35 259.19 331.77 251.74 329.89 244.21 C 326.92 235.72 317.95 232.08 310.48 228.50 C 306.10 226.15 300.89 226.58 296.18 227.17 M 265.11 238.05 C 263.96 238.52 262.88 239.20 262.01 240.09 C 258.06 245.15 254.88 251.37 255.76 257.99 C 255.27 261.80 257.42 265.78 261.20 266.93 C 266.87 268.18 274.60 266.93 276.91 260.81 C 278.32 255.04 275.72 249.40 274.12 243.95 C 273.11 240.07 269.40 236.24 265.11 238.05 M 335.10 260.03 C 325.86 263.04 328.87 278.44 337.93 279.27 C 341.14 279.61 345.04 278.32 345.90 274.86 C 347.06 270.29 345.59 265.06 342.50 261.54 C 340.84 259.20 337.57 259.38 335.10 260.03 M 273.18 271.07 C 264.89 274.27 259.53 283.30 259.75 292.01 C 259.76 299.40 266.39 305.25 264.67 312.84 C 262.54 317.36 261.11 322.18 259.93 327.03 C 259.10 331.76 261.01 336.53 263.59 340.42 C 266.44 344.01 271.73 343.85 275.78 342.91 C 281.72 340.60 286.01 335.36 289.28 330.08 C 290.54 328.34 289.95 326.10 290.42 324.14 C 291.47 320.66 288.82 317.45 289.12 313.97 C 288.82 309.57 290.50 305.39 291.17 301.11 C 291.28 296.39 291.34 291.68 291.18 286.97 C 290.97 278.05 282.68 268.57 273.18 271.07 M 319.23 280.19 C 314.50 282.10 309.81 284.41 306.49 288.42 C 301.70 293.87 296.81 299.74 294.89 306.89 C 294.52 311.60 294.73 316.33 294.90 321.04 C 296.16 324.90 296.79 328.94 298.22 332.76 C 299.54 337.42 299.18 342.70 302.15 346.80 C 304.70 351.71 309.75 354.81 315.00 356.13 C 320.28 355.66 324.87 352.21 328.45 348.47 C 335.40 341.85 339.75 331.88 337.91 322.26 C 337.27 320.51 336.48 318.81 336.11 316.98 C 337.64 311.94 339.50 306.99 341.13 301.97 C 341.39 298.97 341.31 295.94 341.15 292.94 C 338.98 287.88 336.04 282.26 330.47 280.39 C 326.92 279.11 322.85 279.41 319.23 280.19 M 284.16 344.13 C 280.41 345.76 276.62 347.87 274.45 351.46 C 267.91 358.75 263.81 369.28 266.69 378.97 C 267.30 383.76 269.23 388.27 269.86 393.05 C 270.74 400.08 275.59 407.07 282.90 408.28 C 287.52 408.69 291.45 405.59 294.90 402.93 C 302.20 396.03 308.64 385.88 305.59 375.46 C 304.41 367.74 303.16 359.76 299.28 352.84 C 296.69 347.26 290.75 341.79 284.16 344.13 M 309.06 359.94 C 306.96 361.33 306.32 363.56 306.87 365.98 C 308.35 368.24 312.00 369.22 313.57 366.52 C 315.80 363.38 312.90 358.75 309.06 359.94 M 326.16 360.98 C 319.41 364.80 313.32 370.47 310.85 378.00 C 310.39 382.59 310.88 387.52 313.55 391.40 C 315.64 392.98 317.83 394.43 320.55 394.53 C 325.49 397.64 331.53 400.82 337.46 398.64 C 342.88 396.29 343.80 390.05 345.02 384.96 C 345.85 377.89 345.00 369.66 339.51 364.53 C 336.34 360.66 330.78 360.09 326.16 360.98 M 295.38 410.40 C 292.28 414.36 291.15 419.30 289.80 424.02 C 290.55 425.96 291.13 427.98 292.10 429.84 C 293.29 432.12 296.17 432.37 298.00 433.93 C 301.83 437.89 307.28 441.07 312.98 440.26 C 318.79 440.11 322.73 435.34 326.48 431.51 C 331.85 425.83 330.78 417.16 328.77 410.27 C 327.98 405.86 325.05 401.76 320.84 400.07 C 311.32 397.95 300.80 402.35 295.38 410.40 M 262.85 403.05 C 262.61 404.99 262.18 407.78 264.11 409.03 C 266.15 409.32 269.91 410.00 270.20 407.03 C 270.86 404.85 269.43 403.20 267.93 401.88 C 266.17 401.77 263.91 401.15 262.85 403.05 M 268.07 413.25 C 263.90 419.76 270.95 428.72 278.11 428.24 C 280.98 427.64 282.74 424.79 282.31 421.95 C 283.17 416.47 279.02 411.44 274.00 409.83 C 271.85 410.59 269.18 410.95 268.07 413.25 M 283.14 434.88 C 281.70 436.24 280.20 437.56 279.00 439.14 C 277.65 445.59 281.72 451.58 286.00 455.99 C 289.99 460.31 296.34 461.19 301.86 460.01 C 306.16 457.68 305.95 452.31 304.85 448.20 C 303.61 445.61 302.03 443.02 299.82 441.17 C 294.75 437.97 289.63 433.27 283.14 434.88 M 310.05 450.14 C 309.49 453.26 309.07 457.11 312.06 459.14 C 314.07 459.26 316.59 459.82 318.07 458.04 C 320.47 455.94 320.73 452.56 321.84 449.76 C 323.06 447.15 320.26 444.63 318.03 443.89 C 314.69 444.88 311.38 446.73 310.05 450.14 Z" />
</g>
<g id="#40354cff">
<path fill="#40354c" opacity="1.00" d=" M 280.92 72.96 C 293.00 69.73 305.61 68.54 318.08 69.51 C 334.89 71.24 351.56 74.73 367.56 80.22 C 361.47 85.16 354.69 89.36 349.59 95.41 C 349.55 95.46 349.47 95.56 349.43 95.61 C 345.52 100.67 341.52 105.69 338.58 111.40 C 338.55 111.45 338.49 111.57 338.46 111.62 C 334.02 121.45 326.21 130.16 325.59 141.35 C 325.58 141.42 325.56 141.56 325.55 141.63 C 324.20 148.42 324.72 155.87 321.14 162.01 C 319.79 164.90 315.49 164.58 313.56 162.49 C 309.39 159.36 308.26 153.19 310.43 148.61 C 310.46 148.55 310.51 148.44 310.54 148.38 C 311.90 144.06 316.74 142.65 318.49 138.60 C 321.42 134.33 317.83 128.94 313.52 127.46 C 311.32 126.94 309.43 128.50 307.60 129.43 C 307.55 129.46 307.44 129.53 307.39 129.56 C 304.01 131.20 302.20 134.66 302.15 138.32 C 297.72 112.88 280.57 90.04 257.50 78.48 C 257.16 78.19 256.46 77.61 256.11 77.32 C 264.33 75.54 272.85 75.46 280.92 72.96 Z" />
<path fill="#40354c" opacity="1.00" d=" M 237.32 82.30 C 244.53 79.64 251.87 83.46 258.08 86.90 C 271.16 94.37 281.63 106.01 288.48 119.36 C 289.61 121.96 291.23 124.50 291.50 127.38 C 285.80 126.38 279.97 133.52 283.51 138.61 C 285.26 142.64 290.06 144.05 291.44 148.33 L 291.52 148.53 L 291.58 148.66 C 294.24 153.98 291.92 161.06 286.59 163.79 C 284.84 164.24 282.35 164.50 281.28 162.67 C 277.23 156.49 277.85 148.69 276.46 141.70 C 276.45 141.63 276.43 141.49 276.42 141.42 C 275.81 130.21 267.98 121.48 263.56 111.62 C 263.52 111.56 263.46 111.45 263.42 111.39 C 260.47 105.69 256.47 100.67 252.57 95.61 C 252.53 95.56 252.45 95.46 252.41 95.41 C 250.57 93.37 248.65 91.41 246.60 89.59 C 246.55 89.55 246.45 89.46 246.40 89.42 C 243.35 87.07 240.18 84.88 237.32 82.30 Z" />
<path fill="#40354c" opacity="1.00" d=" M 379.17 95.00 C 382.17 91.80 385.39 88.68 389.55 87.06 C 396.84 89.94 403.70 93.76 410.65 97.36 C 412.33 102.03 412.90 107.08 413.02 112.02 C 412.34 126.74 408.25 141.11 402.77 154.74 C 396.29 169.88 385.81 183.02 373.58 193.93 C 372.27 191.99 371.44 189.79 370.64 187.60 C 370.61 187.53 370.55 187.39 370.52 187.32 C 368.75 183.97 368.71 180.12 367.66 176.55 C 367.63 176.47 367.58 176.32 367.56 176.24 C 367.05 174.97 366.44 173.75 365.74 172.58 C 365.71 172.53 365.63 172.42 365.59 172.37 C 364.15 170.55 362.49 168.90 360.68 167.45 C 360.63 167.41 360.51 167.32 360.46 167.28 C 358.93 166.24 357.39 165.25 355.79 164.34 C 355.69 164.30 355.49 164.24 355.39 164.21 C 352.13 163.93 348.84 163.90 345.59 164.27 C 345.52 164.28 345.36 164.32 345.28 164.34 C 344.61 164.58 343.26 165.08 342.59 165.33 C 342.52 165.36 342.39 165.43 342.33 165.47 C 341.77 165.85 340.67 166.60 340.12 166.98 C 340.91 160.57 342.41 154.28 343.30 147.90 C 343.35 147.70 343.46 147.32 343.51 147.12 C 343.75 146.25 344.22 144.50 344.46 143.62 C 344.48 143.56 344.51 143.44 344.52 143.37 C 346.18 136.62 349.28 130.15 353.40 124.59 C 353.44 124.54 353.52 124.43 353.56 124.38 C 356.97 119.27 360.33 114.13 364.34 109.45 C 367.99 103.44 373.49 98.98 379.17 95.00 Z" />
<path fill="#40354c" opacity="1.00" d=" M 214.54 88.08 C 218.86 89.99 221.29 94.28 225.18 96.77 C 228.49 99.07 231.61 101.70 234.24 104.76 C 239.02 111.28 244.17 117.50 248.44 124.38 C 248.48 124.43 248.56 124.54 248.60 124.59 C 251.12 127.03 252.03 130.49 253.80 133.42 C 255.65 136.40 256.44 139.84 257.44 143.15 C 257.49 143.32 257.58 143.67 257.63 143.84 C 257.85 144.67 258.28 146.32 258.50 147.15 C 258.54 147.33 258.64 147.68 258.68 147.86 C 259.68 154.26 261.00 160.62 261.92 167.06 C 261.36 166.66 260.25 165.86 259.70 165.46 C 259.63 165.42 259.50 165.35 259.43 165.31 C 258.76 165.06 257.40 164.57 256.72 164.32 C 256.64 164.30 256.48 164.27 256.40 164.25 C 253.13 163.89 249.82 163.96 246.55 164.21 C 246.45 164.24 246.25 164.31 246.15 164.34 C 244.52 165.18 243.05 166.30 241.59 167.40 C 241.54 167.44 241.43 167.52 241.38 167.56 C 239.57 168.97 237.82 170.50 236.41 172.33 C 236.37 172.38 236.29 172.50 236.26 172.55 C 235.55 173.73 234.95 174.97 234.45 176.26 C 234.43 176.33 234.38 176.48 234.36 176.55 C 233.21 179.99 233.44 183.85 231.52 187.02 L 231.08 187.30 C 227.73 176.90 222.46 167.00 214.94 158.99 C 204.75 148.76 192.30 140.32 178.10 136.90 C 165.46 133.68 151.97 133.02 139.34 136.66 C 142.42 133.63 145.17 130.24 148.68 127.68 C 156.62 121.93 164.13 115.51 172.81 110.87 C 177.60 108.50 181.73 105.06 186.37 102.44 C 195.50 97.18 204.61 91.73 214.54 88.08 Z" />
<path fill="#40354c" opacity="1.00" d=" M 419.29 102.18 C 432.02 109.89 445.03 117.74 455.11 128.88 C 460.15 134.07 464.08 140.19 467.48 146.55 C 473.28 157.35 479.24 168.19 482.90 179.93 C 485.19 188.93 487.64 197.94 489.93 206.90 C 487.68 213.74 485.30 220.86 480.30 226.25 C 475.90 230.92 470.77 234.86 465.43 238.40 C 452.31 246.75 437.87 253.18 422.70 256.71 C 413.71 258.52 404.14 259.57 395.25 256.75 C 393.73 256.16 391.50 256.53 390.69 254.83 C 393.61 253.23 396.62 251.54 398.44 248.62 C 398.48 248.57 398.56 248.46 398.60 248.41 C 402.19 243.73 402.05 237.63 402.04 232.04 C 401.88 231.46 401.55 230.30 401.39 229.72 C 399.93 222.78 396.72 216.32 392.60 210.60 C 392.56 210.54 392.47 210.44 392.43 210.38 C 390.71 208.22 388.80 206.23 386.69 204.45 C 386.63 204.41 386.52 204.32 386.46 204.28 C 385.75 203.81 384.31 202.88 383.59 202.41 C 383.54 202.38 383.43 202.32 383.37 202.29 C 381.64 201.47 379.95 200.57 378.59 199.21 C 391.16 187.57 402.29 173.96 409.10 158.10 C 414.51 144.97 418.47 131.16 419.87 117.00 C 419.98 112.06 420.21 107.07 419.29 102.18 Z" />
<path fill="#40354c" opacity="1.00" d=" M 134.73 145.65 C 152.02 138.83 172.00 140.51 188.68 148.32 C 200.62 154.64 211.67 163.61 218.27 175.60 C 222.17 182.20 224.36 189.60 226.24 196.97 C 225.85 197.30 225.07 197.95 224.68 198.28 C 224.62 198.33 224.50 198.43 224.44 198.48 C 222.68 200.02 220.73 201.31 218.59 202.27 C 218.54 202.30 218.42 202.37 218.37 202.40 C 217.66 202.89 216.24 203.87 215.53 204.36 C 215.48 204.40 215.38 204.47 215.33 204.51 C 214.34 205.33 213.37 206.18 212.38 207.00 C 211.92 207.10 210.99 207.30 210.52 207.40 C 185.76 219.05 162.41 234.63 144.78 255.79 C 135.90 250.39 132.65 239.95 127.20 231.67 C 120.92 220.46 111.51 210.81 99.95 205.07 C 90.96 200.29 78.20 206.64 77.15 216.94 C 76.43 221.30 76.00 228.80 82.01 229.31 C 83.20 228.75 84.58 228.27 85.04 226.88 C 85.65 222.98 85.72 218.93 87.26 215.24 C 89.56 213.28 92.75 211.95 95.72 213.23 C 102.43 216.37 107.97 221.51 112.89 226.96 C 116.73 231.68 119.69 237.04 122.73 242.30 C 127.46 250.74 130.57 259.95 135.07 268.50 C 126.11 279.14 121.87 292.63 116.93 305.37 C 109.88 299.39 102.28 293.76 97.13 285.94 C 94.97 282.49 91.47 280.14 89.42 276.62 C 82.97 265.64 77.89 253.68 76.18 240.98 C 74.47 230.15 70.89 218.61 75.14 207.93 C 77.25 203.06 78.19 196.92 83.28 194.14 C 87.35 191.71 92.46 193.73 96.58 191.66 C 101.72 187.37 104.52 181.05 109.41 176.52 C 111.43 173.22 113.02 169.61 115.48 166.57 C 119.53 161.48 122.39 155.57 126.66 150.64 C 128.59 147.96 131.89 147.02 134.73 145.65 Z" />
<path fill="#40354c" opacity="1.00" d=" M 493.47 217.90 C 494.51 219.78 494.69 221.96 495.18 224.02 C 497.76 237.29 501.26 250.45 502.16 263.99 C 502.73 272.00 503.87 279.96 504.10 287.99 C 504.44 300.39 504.04 312.83 502.60 325.16 C 500.48 339.19 497.48 353.06 494.60 366.95 C 494.51 368.00 493.96 368.63 492.95 368.85 C 484.04 371.41 474.51 370.57 465.56 368.63 C 449.87 364.88 434.67 358.72 421.40 349.46 L 421.44 348.88 C 421.91 346.81 422.10 344.68 421.41 342.64 C 420.31 335.19 419.51 327.59 416.69 320.55 C 416.66 320.48 416.60 320.33 416.57 320.25 C 414.76 316.80 413.31 313.14 411.10 309.93 C 407.32 305.79 403.43 301.70 398.90 298.37 C 398.06 286.71 396.30 275.15 393.72 263.75 C 405.21 267.26 417.47 265.43 428.88 262.52 C 444.12 258.34 458.64 251.58 471.75 242.77 C 480.75 236.37 489.83 228.72 493.47 217.90 Z" />
<path fill="#40354c" opacity="1.00" d=" M 136.89 282.00 C 152.99 256.49 175.89 235.07 203.01 221.75 C 199.64 230.17 198.20 240.32 203.21 248.42 C 203.25 248.48 203.33 248.59 203.36 248.65 C 206.43 253.24 212.07 254.46 216.37 257.45 C 216.43 257.48 216.55 257.54 216.61 257.57 C 217.26 258.03 218.56 258.93 219.21 259.39 C 219.35 259.48 219.63 259.67 219.77 259.77 C 221.72 260.87 223.27 262.48 224.44 264.39 C 224.47 264.45 224.52 264.56 224.55 264.62 C 226.24 268.74 225.54 273.50 223.55 277.38 C 223.52 277.44 223.46 277.55 223.43 277.61 C 222.96 278.31 222.04 279.70 221.58 280.39 C 221.54 280.44 221.46 280.55 221.42 280.60 C 220.69 281.48 219.93 282.33 219.12 283.14 C 212.57 283.77 205.83 283.87 199.37 285.51 C 184.67 288.83 171.03 295.95 159.27 305.29 C 147.12 314.66 136.11 325.78 128.21 339.01 C 124.96 344.13 122.40 349.63 119.49 354.95 C 119.71 351.90 118.69 348.95 118.57 345.93 C 118.00 339.77 120.72 333.98 121.19 327.91 C 121.34 323.64 122.34 319.48 123.26 315.32 C 127.63 304.16 130.78 292.42 136.89 282.00 Z" />
<path fill="#40354c" opacity="1.00" d=" M 377.64 264.45 C 378.67 262.47 380.21 260.73 382.28 259.82 L 382.84 259.82 C 385.67 269.03 387.88 278.67 388.39 288.28 C 385.17 286.44 382.77 283.52 380.58 280.60 C 380.54 280.55 380.47 280.44 380.43 280.39 C 380.02 279.72 379.20 278.37 378.79 277.70 C 378.71 277.55 378.54 277.24 378.46 277.09 C 376.39 273.36 375.75 268.69 377.52 264.72 C 377.55 264.65 377.61 264.52 377.64 264.45 Z" />
<path fill="#40354c" opacity="1.00" d=" M 167.28 308.19 C 180.08 298.85 195.27 292.14 211.18 290.99 C 208.70 294.58 204.96 296.92 201.61 299.61 C 198.16 301.88 195.71 305.30 192.51 307.87 C 173.84 312.79 157.98 325.07 145.57 339.53 C 136.50 350.46 128.97 362.79 124.36 376.26 C 123.83 377.52 123.69 379.08 122.53 379.97 C 121.91 376.68 121.24 373.38 121.09 370.03 C 125.58 358.00 131.46 346.44 138.81 335.90 C 146.67 325.17 156.58 316.04 167.28 308.19 Z" />
<path fill="#40354c" opacity="1.00" d=" M 160.97 333.91 C 168.14 327.31 176.25 321.66 185.26 317.90 L 186.22 318.00 C 186.04 318.54 185.69 319.62 185.51 320.16 C 185.45 320.33 185.33 320.66 185.27 320.83 C 181.88 328.77 181.56 337.54 180.05 345.93 C 181.15 352.01 186.46 356.31 191.34 359.58 C 191.40 359.62 191.52 359.69 191.58 359.73 C 194.11 361.06 196.64 362.39 199.21 363.64 C 199.30 363.66 199.49 363.71 199.58 363.74 C 203.85 363.74 208.15 364.96 211.62 367.49 C 213.48 369.65 215.41 371.77 217.25 373.96 C 216.55 375.91 216.00 377.92 216.06 380.02 C 216.07 384.38 214.15 388.42 212.54 392.37 C 212.51 392.43 212.46 392.56 212.44 392.62 C 211.02 395.87 210.17 399.37 208.37 402.46 C 204.82 408.78 204.60 416.22 203.37 423.20 C 202.43 428.45 203.27 433.86 205.18 438.80 C 206.61 442.30 206.80 446.59 209.84 449.21 C 212.05 451.28 214.42 453.31 217.21 454.59 C 217.28 454.62 217.43 454.68 217.51 454.71 C 219.34 455.43 221.47 455.69 223.02 457.01 C 223.20 457.38 223.56 458.11 223.74 458.48 C 222.30 469.50 223.59 480.62 225.28 491.54 C 224.54 491.43 223.07 491.20 222.34 491.09 C 216.20 488.83 209.95 486.94 204.09 483.99 C 198.04 480.46 190.87 479.64 184.80 476.14 C 180.65 473.71 176.05 471.84 172.67 468.31 C 170.39 465.98 167.79 464.00 165.44 461.76 C 159.06 456.56 153.46 450.48 148.16 444.21 C 145.91 440.73 143.19 437.47 141.37 433.74 C 138.56 426.05 135.04 418.58 130.83 411.57 C 128.35 406.09 127.77 399.88 126.67 394.05 C 131.43 371.08 143.54 349.64 160.97 333.91 Z" />
<path fill="#40354c" opacity="1.00" d=" M 410.76 359.47 C 413.14 357.98 415.27 356.14 417.35 354.26 C 417.46 354.60 417.67 355.29 417.78 355.63 C 433.37 366.35 451.40 373.37 469.98 376.74 C 477.34 378.11 484.79 377.65 492.14 376.79 C 491.68 378.45 491.19 380.11 490.66 381.76 C 483.12 384.47 474.91 384.08 467.02 383.97 C 457.06 382.93 447.13 381.03 437.79 377.35 C 427.45 373.69 417.15 368.57 409.83 360.19 L 410.34 359.78 C 410.44 359.70 410.66 359.55 410.76 359.47 Z" />
<path fill="#40354c" opacity="1.00" d=" M 390.41 367.47 C 393.99 364.66 398.61 363.94 403.02 363.58 C 410.88 372.36 421.05 378.86 432.11 382.84 C 449.70 390.00 469.23 393.01 488.03 389.89 C 484.54 397.50 482.39 405.75 477.93 412.90 C 472.57 420.20 466.09 426.76 461.85 434.80 C 459.82 438.31 457.46 441.72 454.61 444.62 C 451.86 446.85 449.52 449.52 446.99 451.98 C 443.60 455.23 438.80 456.72 435.83 460.44 C 429.45 464.92 422.42 468.41 416.20 473.16 C 410.65 476.25 405.60 480.24 399.71 482.71 C 397.60 483.90 395.38 482.36 393.35 481.74 C 384.22 478.40 375.89 472.77 370.03 464.95 C 369.71 466.59 369.99 468.46 369.05 469.94 C 369.34 467.44 369.20 464.76 370.44 462.49 C 373.24 458.90 377.95 458.07 381.61 455.68 C 386.44 454.00 391.02 451.21 394.03 446.99 C 396.69 439.95 399.17 432.57 398.91 424.94 C 398.33 421.85 397.81 418.75 397.73 415.60 C 397.72 415.52 397.68 415.35 397.66 415.26 C 396.04 411.31 396.23 406.80 393.96 403.09 C 392.03 399.80 390.98 396.13 389.56 392.62 C 389.53 392.56 389.48 392.43 389.46 392.37 C 388.46 390.02 387.50 387.66 386.75 385.23 C 385.39 381.57 386.44 377.50 384.79 373.90 C 386.65 371.74 388.53 369.61 390.41 367.47 Z" />
<path fill="#40354c" opacity="1.00" d=" M 230.28 461.19 C 230.71 461.44 231.56 461.94 231.99 462.19 C 232.02 462.88 232.08 464.26 232.11 464.95 C 231.44 466.29 231.17 468.06 232.45 469.16 C 233.67 470.77 234.88 472.41 235.47 474.38 C 235.49 474.44 235.52 474.56 235.54 474.62 C 236.98 481.00 235.48 487.63 236.89 494.00 C 235.60 493.63 234.31 493.28 233.01 492.99 C 231.13 485.84 230.83 478.36 230.27 471.00 C 229.94 467.73 230.94 464.42 230.28 461.19 Z" />
<path fill="#40354c" opacity="1.00" d=" M 367.33 472.78 C 372.97 478.99 379.97 484.41 388.06 486.90 C 385.31 488.43 382.10 489.08 379.66 491.15 C 374.64 493.52 369.18 494.76 364.15 497.08 C 366.93 489.89 364.83 482.12 366.51 474.76 C 366.54 474.66 366.61 474.46 366.64 474.36 L 367.33 472.78 Z" />
</g>
<g id="#6d4849ff">
<path fill="#6d4849" opacity="1.00" d=" M 246.40 89.42 C 246.45 89.46 246.55 89.55 246.60 89.59 C 246.55 89.55 246.45 89.46 246.40 89.42 Z" />
<path fill="#6d4849" opacity="1.00" d=" M 252.41 95.41 C 252.45 95.46 252.53 95.56 252.57 95.61 C 252.53 95.56 252.45 95.46 252.41 95.41 Z" />
<path fill="#6d4849" opacity="1.00" d=" M 349.43 95.61 C 349.47 95.56 349.55 95.46 349.59 95.41 C 349.55 95.46 349.47 95.56 349.43 95.61 Z" />
<path fill="#6d4849" opacity="1.00" d=" M 263.42 111.39 C 263.46 111.45 263.52 111.56 263.56 111.62 C 263.52 111.56 263.46 111.45 263.42 111.39 Z" />
<path fill="#6d4849" opacity="1.00" d=" M 338.46 111.62 C 338.49 111.57 338.55 111.45 338.58 111.40 C 338.55 111.45 338.49 111.57 338.46 111.62 Z" />
<path fill="#6d4849" opacity="1.00" d=" M 248.44 124.38 C 248.48 124.43 248.56 124.54 248.60 124.59 C 248.56 124.54 248.48 124.43 248.44 124.38 Z" />
<path fill="#6d4849" opacity="1.00" d=" M 353.40 124.59 C 353.44 124.54 353.52 124.43 353.56 124.38 C 353.52 124.43 353.44 124.54 353.40 124.59 Z" />
<path fill="#6d4849" opacity="1.00" d=" M 307.39 129.56 C 307.44 129.53 307.55 129.46 307.60 129.43 C 307.55 129.46 307.44 129.53 307.39 129.56 Z" />
<path fill="#6d4849" opacity="1.00" d=" M 276.42 141.42 C 276.43 141.49 276.45 141.63 276.46 141.70 C 276.45 141.63 276.43 141.49 276.42 141.42 Z" />
<path fill="#6d4849" opacity="1.00" d=" M 325.55 141.63 C 325.56 141.56 325.58 141.42 325.59 141.35 C 325.58 141.42 325.56 141.56 325.55 141.63 Z" />
<path fill="#6d4849" opacity="1.00" d=" M 257.44 143.15 C 257.49 143.32 257.58 143.67 257.63 143.84 C 257.58 143.67 257.49 143.32 257.44 143.15 Z" />
<path fill="#6d4849" opacity="1.00" d=" M 344.46 143.62 C 344.48 143.56 344.51 143.44 344.52 143.37 C 344.51 143.44 344.48 143.56 344.46 143.62 Z" />
<path fill="#6d4849" opacity="1.00" d=" M 258.50 147.15 C 258.54 147.33 258.64 147.68 258.68 147.86 C 258.64 147.68 258.54 147.33 258.50 147.15 Z" />
<path fill="#6d4849" opacity="1.00" d=" M 343.30 147.90 C 343.35 147.70 343.46 147.32 343.51 147.12 C 343.46 147.32 343.35 147.70 343.30 147.90 Z" />
<path fill="#6d4849" opacity="1.00" d=" M 291.44 148.33 C 291.47 148.41 291.54 148.58 291.58 148.66 L 291.52 148.53 L 291.44 148.33 Z" />
<path fill="#6d4849" opacity="1.00" d=" M 310.43 148.61 C 310.46 148.55 310.51 148.44 310.54 148.38 C 310.51 148.44 310.46 148.55 310.43 148.61 Z" />
<path fill="#6d4849" opacity="1.00" d=" M 246.15 164.34 C 246.25 164.31 246.45 164.24 246.55 164.21 C 246.45 164.24 246.25 164.31 246.15 164.34 Z" />
<path fill="#6d4849" opacity="1.00" d=" M 256.40 164.25 C 256.48 164.27 256.64 164.30 256.72 164.32 C 256.64 164.30 256.48 164.27 256.40 164.25 Z" />
<path fill="#6d4849" opacity="1.00" d=" M 345.28 164.34 C 345.36 164.32 345.52 164.28 345.59 164.27 C 345.52 164.28 345.36 164.32 345.28 164.34 Z" />
<path fill="#6d4849" opacity="1.00" d=" M 355.39 164.21 C 355.49 164.24 355.69 164.30 355.79 164.34 C 355.69 164.30 355.49 164.24 355.39 164.21 Z" />
<path fill="#6d4849" opacity="1.00" d=" M 259.43 165.31 C 259.50 165.35 259.63 165.42 259.70 165.46 C 259.63 165.42 259.50 165.35 259.43 165.31 Z" />
<path fill="#6d4849" opacity="1.00" d=" M 342.33 165.47 C 342.39 165.43 342.52 165.36 342.59 165.33 C 342.52 165.36 342.39 165.43 342.33 165.47 Z" />
<path fill="#6d4849" opacity="1.00" d=" M 241.38 167.56 C 241.43 167.52 241.54 167.44 241.59 167.40 C 241.54 167.44 241.43 167.52 241.38 167.56 Z" />
<path fill="#6d4849" opacity="1.00" d=" M 360.46 167.28 C 360.51 167.32 360.63 167.41 360.68 167.45 C 360.63 167.41 360.51 167.32 360.46 167.28 Z" />
<path fill="#6d4849" opacity="1.00" d=" M 236.26 172.55 C 236.29 172.50 236.37 172.38 236.41 172.33 C 236.37 172.38 236.29 172.50 236.26 172.55 Z" />
<path fill="#6d4849" opacity="1.00" d=" M 365.59 172.37 C 365.63 172.42 365.71 172.53 365.74 172.58 C 365.71 172.53 365.63 172.42 365.59 172.37 Z" />
<path fill="#6d4849" opacity="1.00" d=" M 234.36 176.55 C 234.38 176.48 234.43 176.33 234.45 176.26 C 234.43 176.33 234.38 176.48 234.36 176.55 Z" />
<path fill="#6d4849" opacity="1.00" d=" M 367.56 176.24 C 367.58 176.32 367.63 176.47 367.66 176.55 C 367.63 176.47 367.58 176.32 367.56 176.24 Z" />
<path fill="#6d4849" opacity="1.00" d=" M 231.08 187.30 L 231.52 187.02 C 231.44 187.19 231.29 187.52 231.21 187.69 L 231.08 187.30 Z" />
<path fill="#6d4849" opacity="1.00" d=" M 370.52 187.32 C 370.55 187.39 370.61 187.53 370.64 187.60 C 370.61 187.53 370.55 187.39 370.52 187.32 Z" />
<path fill="#6d4849" opacity="1.00" d=" M 224.44 198.48 C 224.50 198.43 224.62 198.33 224.68 198.28 C 224.62 198.33 224.50 198.43 224.44 198.48 Z" />
<path fill="#6d4849" opacity="1.00" d=" M 218.37 202.40 C 218.42 202.37 218.54 202.30 218.59 202.27 C 218.54 202.30 218.42 202.37 218.37 202.40 Z" />
<path fill="#6d4849" opacity="1.00" d=" M 383.37 202.29 C 383.43 202.32 383.54 202.38 383.59 202.41 C 383.54 202.38 383.43 202.32 383.37 202.29 Z" />
<path fill="#6d4849" opacity="1.00" d=" M 215.33 204.51 C 215.38 204.47 215.48 204.40 215.53 204.36 C 215.48 204.40 215.38 204.47 215.33 204.51 Z" />
<path fill="#6d4849" opacity="1.00" d=" M 386.46 204.28 C 386.52 204.32 386.63 204.41 386.69 204.45 C 386.63 204.41 386.52 204.32 386.46 204.28 Z" />
<path fill="#6d4849" opacity="1.00" d=" M 392.43 210.38 C 392.47 210.44 392.56 210.54 392.60 210.60 C 392.56 210.54 392.47 210.44 392.43 210.38 Z" />
<path fill="#6d4849" opacity="1.00" d=" M 401.39 229.72 C 401.55 230.30 401.88 231.46 402.04 232.04 C 401.88 231.46 401.55 230.30 401.39 229.72 Z" />
<path fill="#6d4849" opacity="1.00" d=" M 203.21 248.42 C 203.25 248.48 203.33 248.59 203.36 248.65 C 203.33 248.59 203.25 248.48 203.21 248.42 Z" />
<path fill="#6d4849" opacity="1.00" d=" M 398.44 248.62 C 398.48 248.57 398.56 248.46 398.60 248.41 C 398.56 248.46 398.48 248.57 398.44 248.62 Z" />
<path fill="#6d4849" opacity="1.00" d=" M 216.37 257.45 C 216.43 257.48 216.55 257.54 216.61 257.57 C 216.55 257.54 216.43 257.48 216.37 257.45 Z" />
<path fill="#6d4849" opacity="1.00" d=" M 219.21 259.39 C 219.35 259.48 219.63 259.67 219.77 259.77 C 219.63 259.67 219.35 259.48 219.21 259.39 Z" />
<path fill="#6d4849" opacity="1.00" d=" M 382.28 259.82 C 382.44 259.72 382.74 259.53 382.90 259.44 L 382.84 259.82 L 382.28 259.82 Z" />
<path fill="#6d4849" opacity="1.00" d=" M 224.44 264.39 C 224.47 264.45 224.52 264.56 224.55 264.62 C 224.52 264.56 224.47 264.45 224.44 264.39 Z" />
<path fill="#6d4849" opacity="1.00" d=" M 377.52 264.72 C 377.55 264.65 377.61 264.52 377.64 264.45 C 377.61 264.52 377.55 264.65 377.52 264.72 Z" />
<path fill="#6d4849" opacity="1.00" d=" M 223.43 277.61 C 223.46 277.55 223.52 277.44 223.55 277.38 C 223.52 277.44 223.46 277.55 223.43 277.61 Z" />
<path fill="#6d4849" opacity="1.00" d=" M 378.46 277.09 C 378.54 277.24 378.71 277.55 378.79 277.70 C 378.71 277.55 378.54 277.24 378.46 277.09 Z" />
<path fill="#6d4849" opacity="1.00" d=" M 221.42 280.60 C 221.46 280.55 221.54 280.44 221.58 280.39 C 221.54 280.44 221.46 280.55 221.42 280.60 Z" />
<path fill="#6d4849" opacity="1.00" d=" M 380.43 280.39 C 380.47 280.44 380.54 280.55 380.58 280.60 C 380.54 280.55 380.47 280.44 380.43 280.39 Z" />
<path fill="#6d4849" opacity="1.00" d=" M 375.39 304.42 L 375.51 304.49 L 375.58 304.61 C 375.53 304.57 375.44 304.47 375.39 304.42 Z" />
<path fill="#6d4849" opacity="1.00" d=" M 185.27 320.83 C 185.33 320.66 185.45 320.33 185.51 320.16 C 185.45 320.33 185.33 320.66 185.27 320.83 Z" />
<path fill="#6d4849" opacity="1.00" d=" M 416.57 320.25 C 416.60 320.33 416.66 320.48 416.69 320.55 C 416.66 320.48 416.60 320.33 416.57 320.25 Z" />
<path fill="#6d4849" opacity="1.00" d=" M 191.34 359.58 C 191.40 359.62 191.52 359.69 191.58 359.73 C 191.52 359.69 191.40 359.62 191.34 359.58 Z" />
<path fill="#6d4849" opacity="1.00" d=" M 410.34 359.78 C 410.44 359.70 410.66 359.55 410.76 359.47 C 410.66 359.55 410.44 359.70 410.34 359.78 Z" />
<path fill="#6d4849" opacity="1.00" d=" M 199.21 363.64 C 199.30 363.66 199.49 363.71 199.58 363.74 C 199.49 363.71 199.30 363.66 199.21 363.64 Z" />
<path fill="#6d4849" opacity="1.00" d=" M 212.44 392.62 C 212.46 392.56 212.51 392.43 212.54 392.37 C 212.51 392.43 212.46 392.56 212.44 392.62 Z" />
<path fill="#6d4849" opacity="1.00" d=" M 389.46 392.37 C 389.48 392.43 389.53 392.56 389.56 392.62 C 389.53 392.56 389.48 392.43 389.46 392.37 Z" />
<path fill="#6d4849" opacity="1.00" d=" M 86.23 402.31 C 90.07 399.83 95.32 397.44 99.64 400.26 C 102.21 402.32 105.39 403.23 108.38 404.49 C 112.95 407.20 116.72 411.32 122.01 412.72 C 125.00 413.04 127.92 412.11 130.83 411.57 C 135.04 418.58 138.56 426.05 141.37 433.74 C 139.01 436.28 134.96 435.15 132.10 436.88 C 129.39 437.89 126.57 439.93 126.64 443.14 C 126.51 449.74 126.73 457.04 122.77 462.68 C 119.44 465.98 115.21 468.84 113.72 473.53 C 112.52 479.63 113.88 485.99 112.06 492.01 C 108.79 500.55 100.40 505.07 94.61 511.65 C 90.63 517.07 90.10 524.67 93.43 530.58 C 95.77 534.46 100.33 536.77 101.54 541.35 C 101.72 544.55 102.35 548.35 99.64 550.73 C 95.88 552.57 91.69 555.16 87.39 553.53 C 84.04 551.96 81.75 548.67 81.09 545.08 C 79.88 542.19 78.25 536.97 74.11 538.78 C 69.77 542.91 66.28 547.85 62.30 552.31 C 60.08 554.18 58.88 556.88 57.08 559.09 C 54.37 561.40 50.99 562.77 47.95 564.60 C 44.99 564.17 41.94 564.20 39.08 563.23 C 35.73 558.89 35.03 552.07 38.71 547.71 C 40.81 544.02 44.90 542.43 48.05 539.86 C 51.40 537.17 55.61 535.68 58.60 532.53 C 61.68 529.35 65.93 526.69 66.94 522.09 C 68.08 516.46 70.09 510.31 75.62 507.56 C 81.56 504.37 86.07 499.32 89.63 493.69 C 90.83 490.10 92.01 485.98 90.61 482.31 C 88.93 480.59 86.65 478.73 84.09 479.71 C 78.63 481.44 72.52 482.19 68.09 486.15 C 63.51 489.17 61.62 495.03 56.40 497.27 C 52.91 498.50 50.04 501.85 46.11 501.26 C 42.82 501.33 39.54 498.43 39.70 495.04 C 39.59 491.82 39.86 488.35 41.62 485.57 C 43.31 483.88 45.88 483.82 48.03 483.07 C 53.62 481.71 58.92 479.08 63.17 475.17 C 65.82 472.84 68.23 469.97 71.72 468.87 C 78.71 465.98 86.77 468.97 93.60 465.54 C 97.68 464.05 99.57 459.78 100.95 455.99 C 102.82 451.54 101.09 446.67 102.18 442.08 C 103.34 437.49 103.84 432.09 101.12 427.94 C 98.45 425.19 94.24 426.76 91.16 424.87 C 86.29 423.11 84.94 417.47 83.88 412.97 C 83.63 409.35 84.05 405.32 86.23 402.31 Z" />
<path fill="#6d4849" opacity="1.00" d=" M 505.14 399.14 C 508.93 398.34 512.58 400.41 515.72 402.29 C 518.08 405.60 518.58 410.07 517.90 414.01 C 516.82 418.14 515.38 423.19 510.93 424.83 C 507.71 426.83 502.97 425.03 500.53 428.46 C 498.24 432.61 498.70 437.67 499.81 442.11 C 500.89 446.68 499.19 451.52 501.03 455.96 C 502.43 459.75 504.32 464.05 508.42 465.55 C 512.95 467.94 518.15 467.08 523.05 467.55 C 528.16 467.50 533.25 469.48 536.75 473.25 C 541.44 478.05 547.40 481.54 553.95 483.07 C 556.45 483.94 559.98 483.93 561.08 486.84 C 562.31 490.27 562.86 494.19 561.75 497.72 C 559.69 501.43 554.33 502.46 550.92 500.07 C 548.20 498.39 545.10 497.33 542.59 495.32 C 539.43 492.83 537.83 488.87 534.47 486.59 C 529.94 482.36 523.62 481.42 517.91 479.74 C 515.41 478.89 512.99 480.50 511.45 482.35 C 510.10 485.02 510.98 488.15 511.51 490.93 C 512.16 494.82 515.26 497.50 517.52 500.51 C 521.05 505.45 527.56 506.97 531.23 511.77 C 534.93 516.45 533.78 523.50 538.32 527.67 C 541.57 530.74 544.59 534.17 548.54 536.37 C 552.60 538.57 556.09 541.62 560.00 544.06 C 563.09 546.83 566.13 550.65 565.66 555.06 C 565.69 558.00 564.78 560.92 562.91 563.22 C 560.03 564.14 556.97 564.38 553.98 564.49 C 551.43 563.28 549.04 561.77 546.58 560.40 C 544.04 558.93 543.09 555.98 541.20 553.89 C 537.50 550.18 534.53 545.84 530.97 542.01 C 529.43 540.29 527.75 537.70 525.04 538.57 C 521.82 540.91 521.01 545.18 519.71 548.73 C 518.13 551.07 516.05 553.48 513.11 553.93 C 509.45 554.59 506.15 552.48 502.96 551.06 C 499.64 549.07 500.23 544.73 500.47 541.45 C 501.85 535.87 508.32 533.50 509.70 527.91 C 511.04 523.95 511.45 519.42 509.38 515.64 C 508.32 511.25 504.22 508.79 501.34 505.66 C 496.72 502.27 492.79 497.93 490.21 492.80 C 488.02 486.61 489.51 479.96 488.29 473.62 C 486.57 466.92 478.41 464.72 476.90 457.96 C 475.14 452.74 475.69 447.20 475.16 441.83 C 473.34 436.35 466.57 436.05 461.85 434.80 C 466.09 426.76 472.57 420.20 477.93 412.90 C 485.65 412.56 490.08 404.95 497.22 403.07 C 500.11 402.27 502.17 399.74 505.14 399.14 Z" />
<path fill="#6d4849" opacity="1.00" d=" M 397.66 415.26 C 397.68 415.35 397.72 415.52 397.73 415.60 C 397.72 415.52 397.68 415.35 397.66 415.26 Z" />
<path fill="#6d4849" opacity="1.00" d=" M 138.58 453.06 C 139.28 448.20 144.54 446.49 148.16 444.21 C 153.46 450.48 159.06 456.56 165.44 461.76 C 162.99 465.77 160.05 470.01 160.63 474.98 C 160.61 481.44 164.75 487.42 163.33 493.92 C 162.91 496.77 160.68 498.80 158.82 500.81 C 156.25 502.93 152.54 503.60 150.63 506.54 C 148.78 509.70 146.65 513.78 148.70 517.37 C 150.70 520.45 154.89 519.51 157.97 519.26 C 161.86 518.75 163.96 515.15 166.99 513.12 C 170.28 510.53 174.21 508.97 177.58 506.52 C 183.09 504.06 189.16 506.84 194.71 504.50 C 198.37 502.08 199.09 497.49 200.35 493.62 C 201.25 490.29 202.58 487.09 204.09 483.99 C 209.95 486.94 216.20 488.83 222.34 491.09 C 219.18 499.57 217.73 508.81 212.70 516.52 C 207.69 522.85 199.54 525.29 191.84 526.30 C 184.93 528.11 178.31 530.80 171.34 532.37 C 166.38 535.60 165.80 542.07 164.16 547.25 C 162.62 551.80 160.02 556.22 155.95 558.95 C 153.51 560.16 150.67 559.63 148.05 559.77 C 146.01 558.16 144.64 555.72 144.40 553.13 C 143.64 547.05 142.90 540.93 141.09 535.06 C 139.45 530.38 135.08 527.62 131.74 524.24 C 127.67 518.62 125.24 511.23 127.50 504.40 C 129.59 499.88 132.70 495.78 136.73 492.82 C 142.90 487.81 142.14 479.08 142.01 471.97 C 141.06 465.65 137.08 459.69 138.58 453.06 Z" />
<path fill="#6d4849" opacity="1.00" d=" M 446.99 451.98 C 449.52 449.52 451.86 446.85 454.61 444.62 C 457.90 446.75 462.57 448.34 463.34 452.72 C 464.53 458.34 462.38 463.90 460.48 469.09 C 459.44 474.48 459.77 480.13 460.71 485.52 C 461.59 489.96 465.21 492.85 468.48 495.58 C 471.79 499.34 475.37 503.71 475.26 509.01 C 475.81 514.30 473.43 519.28 470.71 523.64 C 467.44 527.44 462.58 530.11 460.90 535.10 C 458.99 541.22 458.33 547.62 457.46 553.94 C 456.98 556.17 455.85 558.53 453.79 559.70 C 450.09 560.02 445.75 559.99 443.35 556.64 C 437.24 551.05 437.59 542.13 433.68 535.34 C 431.09 530.88 425.24 531.55 421.03 529.73 C 410.99 525.16 398.30 526.45 390.32 517.75 C 384.29 510.06 383.13 500.02 379.66 491.15 C 382.10 489.08 385.31 488.43 388.06 486.90 C 391.12 485.84 394.18 484.76 397.04 483.23 C 402.20 489.26 400.94 498.64 406.79 504.15 C 412.30 507.12 418.74 503.96 424.39 506.52 C 428.00 509.05 432.13 510.77 435.57 513.56 C 438.29 515.58 440.40 518.75 444.01 519.25 C 447.08 519.54 451.28 520.41 453.27 517.36 C 455.24 514.03 453.42 510.21 451.77 507.19 C 450.23 504.30 447.00 503.20 444.35 501.65 C 440.64 499.04 437.81 494.76 438.37 490.04 C 439.08 484.31 441.76 478.87 441.37 472.99 C 441.17 468.23 437.99 464.46 435.83 460.44 C 438.80 456.72 443.60 455.23 446.99 451.98 Z" />
<path fill="#6d4849" opacity="1.00" d=" M 217.21 454.59 C 217.28 454.62 217.43 454.68 217.51 454.71 C 217.43 454.68 217.28 454.62 217.21 454.59 Z" />
<path fill="#6d4849" opacity="1.00" d=" M 232.11 464.95 C 233.12 466.11 233.30 467.84 232.45 469.16 C 231.17 468.06 231.44 466.29 232.11 464.95 Z" />
<path fill="#6d4849" opacity="1.00" d=" M 235.47 474.38 C 235.49 474.44 235.52 474.56 235.54 474.62 C 235.52 474.56 235.49 474.44 235.47 474.38 Z" />
<path fill="#6d4849" opacity="1.00" d=" M 366.51 474.76 C 366.54 474.66 366.61 474.46 366.64 474.36 C 366.61 474.46 366.54 474.66 366.51 474.76 Z" />
<path fill="#6d4849" opacity="1.00" d=" M 241.16 500.55 C 245.11 502.19 246.55 507.28 251.01 507.91 C 254.91 509.46 259.60 511.14 261.79 514.92 C 259.48 519.72 260.83 525.21 263.23 529.68 C 264.99 532.24 267.59 534.13 269.14 536.87 C 271.29 540.63 274.75 543.39 277.08 547.02 C 279.06 550.88 278.06 555.52 276.36 559.30 C 274.71 563.49 269.74 567.00 265.31 564.54 C 260.16 561.39 257.60 555.33 257.42 549.45 C 255.42 543.29 250.17 536.58 242.94 537.47 C 238.91 537.05 235.12 539.44 231.11 538.41 C 228.60 537.90 225.53 537.20 224.51 534.52 C 223.43 529.46 225.47 523.68 230.04 520.99 C 233.30 518.31 238.68 517.55 240.01 513.02 C 241.71 509.07 241.69 504.74 241.16 500.55 Z" />
<path fill="#6d4849" opacity="1.00" d=" M 353.15 507.12 C 355.95 505.22 357.75 502.11 360.83 500.57 C 360.15 505.65 360.41 511.22 363.36 515.58 C 367.00 518.74 372.06 520.00 375.19 523.85 C 377.42 526.87 378.25 530.90 377.45 534.56 C 375.61 538.27 370.72 538.69 367.05 538.52 C 361.99 537.57 355.96 536.20 351.44 539.44 C 347.80 542.63 344.47 546.89 344.29 551.92 C 343.87 556.84 341.15 561.31 337.24 564.26 C 335.39 565.22 333.11 565.66 331.10 564.97 C 325.93 562.53 323.78 556.35 323.86 550.97 C 324.14 545.17 329.95 542.12 332.51 537.41 C 334.54 533.56 338.76 531.24 340.02 526.95 C 341.60 523.10 342.00 518.77 340.21 514.92 C 343.02 510.58 348.49 508.82 353.15 507.12 Z" />
</g>
<g id="#7c7a91ff">
<path fill="#7c7a91" opacity="1.00" d=" M 246.55 164.21 C 249.82 163.96 253.13 163.89 256.40 164.25 C 256.48 164.27 256.64 164.30 256.72 164.32 C 257.40 164.57 258.76 165.06 259.43 165.31 C 259.50 165.35 259.63 165.42 259.70 165.46 C 260.25 165.86 261.36 166.66 261.92 167.06 C 264.33 176.67 263.24 186.88 259.94 196.12 C 258.25 192.65 258.42 188.64 256.87 185.14 C 255.97 182.75 252.47 181.87 250.73 183.88 C 248.51 186.30 248.94 189.87 249.44 192.85 C 250.83 199.87 253.72 206.53 256.95 212.89 C 255.24 222.84 254.35 232.89 252.86 242.87 C 251.54 248.50 252.37 254.30 252.16 260.02 C 252.39 268.61 251.34 277.33 253.50 285.76 C 254.06 290.93 254.89 296.08 255.09 301.27 C 246.44 299.46 237.28 299.78 229.01 303.03 C 227.01 303.90 224.86 305.62 225.19 308.07 C 225.13 310.48 227.82 312.00 229.99 311.82 C 232.91 311.52 235.60 310.11 238.53 309.82 C 244.35 308.69 250.50 309.13 256.11 311.02 C 256.17 311.51 256.28 312.47 256.33 312.95 C 244.35 313.50 232.66 317.04 221.72 321.84 C 215.77 324.66 209.16 328.36 207.26 335.17 C 206.50 337.86 209.39 340.60 212.01 339.33 C 215.54 337.13 218.17 333.71 221.92 331.81 C 232.47 326.15 244.26 323.05 256.14 321.88 C 256.05 322.93 255.84 323.97 255.52 324.99 C 248.02 325.64 240.97 329.33 235.55 334.45 C 233.75 336.32 231.73 338.32 231.33 341.01 C 230.80 343.56 233.18 346.39 235.87 345.82 C 238.30 345.30 239.74 343.05 241.33 341.35 C 244.82 337.74 249.42 335.32 254.27 334.12 C 254.13 337.25 254.32 340.42 253.64 343.52 C 252.78 347.98 253.34 352.54 253.14 357.04 C 251.22 368.47 252.24 380.14 253.58 391.56 C 257.17 409.32 260.18 427.74 269.57 443.54 C 270.63 444.96 271.78 446.34 272.42 448.03 C 264.88 458.43 260.40 471.19 260.29 484.07 C 260.51 487.09 260.42 490.84 263.06 492.89 C 265.05 494.56 268.37 493.42 269.01 490.95 C 270.16 487.75 268.85 484.36 269.37 481.09 C 269.93 472.44 272.98 464.11 277.32 456.67 C 278.00 457.45 278.71 458.22 279.30 459.10 C 276.35 466.21 275.19 474.12 276.13 481.77 C 276.61 486.06 283.41 487.40 284.63 482.86 C 285.19 477.93 284.26 472.80 285.84 467.97 L 285.30 467.02 C 287.43 469.12 289.19 471.54 291.31 473.66 C 293.96 476.41 295.33 480.19 298.30 482.67 C 300.03 483.08 301.88 483.00 303.63 482.64 C 306.72 480.29 308.01 476.40 310.68 473.65 C 312.82 471.54 314.59 469.08 316.74 466.97 L 316.15 467.95 C 317.69 472.74 316.88 477.80 317.32 482.71 C 318.40 487.38 325.37 486.14 325.87 481.77 C 326.83 474.12 325.62 466.23 322.73 459.09 C 323.33 458.25 324.01 457.46 324.68 456.67 C 330.17 466.06 333.63 477.03 332.49 487.99 C 332.34 490.57 333.79 493.87 336.83 493.70 C 340.95 493.19 341.55 488.30 341.68 484.97 C 341.86 471.79 337.27 458.69 329.60 448.04 C 335.94 438.38 340.61 427.54 343.07 416.22 C 347.70 398.31 351.21 379.82 349.47 361.26 C 348.12 355.42 349.47 349.38 348.37 343.51 C 347.73 340.49 347.83 337.40 347.77 334.33 C 353.29 335.59 358.56 338.48 362.09 342.97 C 363.58 344.84 366.06 346.71 368.54 345.48 C 371.10 344.07 371.25 340.54 369.68 338.33 C 364.56 330.62 355.50 326.08 346.49 324.93 C 346.19 323.93 345.98 322.91 345.87 321.88 C 353.94 322.79 362.06 324.17 369.62 327.27 C 375.37 329.56 381.51 331.64 385.89 336.23 C 387.69 337.66 389.35 340.19 391.98 339.69 C 394.58 339.74 395.46 336.42 394.57 334.43 C 392.84 328.97 387.85 325.58 383.02 323.07 C 371.31 317.50 358.63 313.80 345.66 312.94 C 345.72 312.46 345.83 311.50 345.89 311.02 C 354.09 307.98 363.04 308.91 371.20 311.61 C 375.23 312.94 378.73 307.76 375.58 304.61 L 375.51 304.49 L 375.39 304.42 C 366.85 299.52 356.37 299.48 346.92 301.26 C 346.46 297.79 347.95 294.51 347.87 291.06 C 348.04 285.62 350.07 280.39 349.90 274.93 C 349.76 265.61 349.98 256.29 349.75 246.98 C 347.96 235.63 346.94 224.20 345.04 212.87 C 348.80 206.33 351.20 199.09 352.69 191.72 C 353.16 189.05 353.21 185.91 351.21 183.83 C 349.47 181.89 346.06 182.76 345.16 185.09 C 343.50 188.61 344.00 192.77 342.10 196.22 C 338.68 186.91 337.82 176.68 340.12 166.98 C 340.67 166.60 341.77 165.85 342.33 165.47 C 342.39 165.43 342.52 165.36 342.59 165.33 C 343.26 165.08 344.61 164.58 345.28 164.34 C 345.36 164.32 345.52 164.28 345.59 164.27 C 348.84 163.90 352.13 163.93 355.39 164.21 C 355.49 164.24 355.69 164.30 355.79 164.34 C 357.39 165.25 358.93 166.24 360.46 167.28 C 360.51 167.32 360.63 167.41 360.68 167.45 C 362.49 168.90 364.15 170.55 365.59 172.37 C 365.63 172.42 365.71 172.53 365.74 172.58 C 366.44 173.75 367.05 174.97 367.56 176.24 C 367.58 176.32 367.63 176.47 367.66 176.55 C 368.71 180.12 368.75 183.97 370.52 187.32 C 370.55 187.39 370.61 187.53 370.64 187.60 C 371.44 189.79 372.27 191.99 373.58 193.93 C 374.81 196.07 376.66 197.71 378.59 199.21 C 379.95 200.57 381.64 201.47 383.37 202.29 C 383.43 202.32 383.54 202.38 383.59 202.41 C 384.31 202.88 385.75 203.81 386.46 204.28 C 386.52 204.32 386.63 204.41 386.69 204.45 C 388.80 206.23 390.71 208.22 392.43 210.38 C 392.47 210.44 392.56 210.54 392.60 210.60 C 396.72 216.32 399.93 222.78 401.39 229.72 C 401.55 230.30 401.88 231.46 402.04 232.04 C 402.05 237.63 402.19 243.73 398.60 248.41 C 398.56 248.46 398.48 248.57 398.44 248.62 C 396.62 251.54 393.61 253.23 390.69 254.83 C 388.00 256.21 385.39 257.73 382.90 259.44 C 382.74 259.53 382.44 259.72 382.28 259.82 C 380.21 260.73 378.67 262.47 377.64 264.45 C 377.61 264.52 377.55 264.65 377.52 264.72 C 375.75 268.69 376.39 273.36 378.46 277.09 C 378.54 277.24 378.71 277.55 378.79 277.70 C 379.20 278.37 380.02 279.72 380.43 280.39 C 380.47 280.44 380.54 280.55 380.58 280.60 C 382.77 283.52 385.17 286.44 388.39 288.28 C 391.59 291.92 395.18 295.26 398.90 298.37 C 403.43 301.70 407.32 305.79 411.10 309.93 C 413.31 313.14 414.76 316.80 416.57 320.25 C 416.60 320.33 416.66 320.48 416.69 320.55 C 419.51 327.59 420.31 335.19 421.41 342.64 C 422.10 344.68 421.91 346.81 421.44 348.88 C 420.21 350.76 419.16 352.85 417.35 354.26 C 415.27 356.14 413.14 357.98 410.76 359.47 C 410.66 359.55 410.44 359.70 410.34 359.78 C 408.10 361.39 405.56 362.54 403.02 363.58 C 398.61 363.94 393.99 364.66 390.41 367.47 C 388.53 369.61 386.65 371.74 384.79 373.90 C 386.44 377.50 385.39 381.57 386.75 385.23 C 387.50 387.66 388.46 390.02 389.46 392.37 C 389.48 392.43 389.53 392.56 389.56 392.62 C 390.98 396.13 392.03 399.80 393.96 403.09 C 396.23 406.80 396.04 411.31 397.66 415.26 C 397.68 415.35 397.72 415.52 397.73 415.60 C 397.81 418.75 398.33 421.85 398.91 424.94 C 399.17 432.57 396.69 439.95 394.03 446.99 C 391.02 451.21 386.44 454.00 381.61 455.68 C 377.95 458.07 373.24 458.90 370.44 462.49 C 369.20 464.76 369.34 467.44 369.05 469.94 C 368.50 470.90 367.88 471.82 367.33 472.78 L 366.64 474.36 C 366.61 474.46 366.54 474.66 366.51 474.76 C 364.83 482.12 366.93 489.89 364.15 497.08 C 363.95 498.89 362.16 499.70 360.83 500.57 C 357.75 502.11 355.95 505.22 353.15 507.12 C 348.49 508.82 343.02 510.58 340.21 514.92 C 336.57 519.48 332.27 523.99 331.13 529.98 C 329.93 537.81 326.39 546.09 319.28 550.22 C 314.16 552.01 308.01 549.94 303.36 553.27 C 300.92 555.09 298.25 553.11 296.10 551.88 C 291.78 550.69 287.04 551.65 282.77 550.27 C 275.65 546.12 272.07 537.84 270.87 529.99 C 269.73 524.00 265.43 519.48 261.79 514.92 C 259.60 511.14 254.91 509.46 251.01 507.91 C 246.55 507.28 245.11 502.19 241.16 500.55 C 238.35 499.54 237.33 496.71 236.89 494.00 C 235.48 487.63 236.98 481.00 235.54 474.62 C 235.52 474.56 235.49 474.44 235.47 474.38 C 234.88 472.41 233.67 470.77 232.45 469.16 C 233.30 467.84 233.12 466.11 232.11 464.95 C 232.08 464.26 232.02 462.88 231.99 462.19 C 231.56 461.94 230.71 461.44 230.28 461.19 C 228.20 459.15 225.16 458.90 223.02 457.01 C 221.47 455.69 219.34 455.43 217.51 454.71 C 217.43 454.68 217.28 454.62 217.21 454.59 C 214.42 453.31 212.05 451.28 209.84 449.21 C 206.80 446.59 206.61 442.30 205.18 438.80 C 203.27 433.86 202.43 428.45 203.37 423.20 C 204.60 416.22 204.82 408.78 208.37 402.46 C 210.17 399.37 211.02 395.87 212.44 392.62 C 212.46 392.56 212.51 392.43 212.54 392.37 C 214.15 388.42 216.07 384.38 216.06 380.02 C 216.00 377.92 216.55 375.91 217.25 373.96 C 215.41 371.77 213.48 369.65 211.62 367.49 C 208.15 364.96 203.85 363.74 199.58 363.74 C 199.49 363.71 199.30 363.66 199.21 363.64 C 196.64 362.39 194.11 361.06 191.58 359.73 C 191.52 359.69 191.40 359.62 191.34 359.58 C 186.46 356.31 181.15 352.01 180.05 345.93 C 181.56 337.54 181.88 328.77 185.27 320.83 C 185.33 320.66 185.45 320.33 185.51 320.16 C 185.69 319.62 186.04 318.54 186.22 318.00 C 188.07 314.49 189.68 310.75 192.51 307.87 C 195.71 305.30 198.16 301.88 201.61 299.61 C 204.96 296.92 208.70 294.58 211.18 290.99 C 213.88 288.44 216.52 285.80 219.12 283.14 C 219.93 282.33 220.69 281.48 221.42 280.60 C 221.46 280.55 221.54 280.44 221.58 280.39 C 222.04 279.70 222.96 278.31 223.43 277.61 C 223.46 277.55 223.52 277.44 223.55 277.38 C 225.54 273.50 226.24 268.74 224.55 264.62 C 224.52 264.56 224.47 264.45 224.44 264.39 C 223.27 262.48 221.72 260.87 219.77 259.77 C 219.63 259.67 219.35 259.48 219.21 259.39 C 218.56 258.93 217.26 258.03 216.61 257.57 C 216.55 257.54 216.43 257.48 216.37 257.45 C 212.07 254.46 206.43 253.24 203.36 248.65 C 203.33 248.59 203.25 248.48 203.21 248.42 C 198.20 240.32 199.64 230.17 203.01 221.75 C 205.17 216.33 208.26 211.17 212.38 207.00 C 213.37 206.18 214.34 205.33 215.33 204.51 C 215.38 204.47 215.48 204.40 215.53 204.36 C 216.24 203.87 217.66 202.89 218.37 202.40 C 218.42 202.37 218.54 202.30 218.59 202.27 C 220.73 201.31 222.68 200.02 224.44 198.48 C 224.50 198.43 224.62 198.33 224.68 198.28 C 225.07 197.95 225.85 197.30 226.24 196.97 C 228.53 194.26 229.71 190.86 231.21 187.69 C 231.29 187.52 231.44 187.19 231.52 187.02 C 233.44 183.85 233.21 179.99 234.36 176.55 C 234.38 176.48 234.43 176.33 234.45 176.26 C 234.95 174.97 235.55 173.73 236.26 172.55 C 236.29 172.50 236.37 172.38 236.41 172.33 C 237.82 170.50 239.57 168.97 241.38 167.56 C 241.43 167.52 241.54 167.44 241.59 167.40 C 243.05 166.30 244.52 165.18 246.15 164.34 C 246.25 164.31 246.45 164.24 246.55 164.21 Z" />
</g>
<g id="#d9c4adff">
<path fill="#d9c4ad" opacity="1.00" d=" M 288.25 176.19 C 290.57 175.47 293.99 175.15 295.39 177.66 C 298.32 182.53 301.73 187.88 299.99 193.84 C 297.20 197.69 292.91 200.87 287.90 200.11 C 285.25 199.06 282.15 197.98 280.82 195.23 C 279.00 191.85 276.71 188.15 278.02 184.16 C 280.68 180.66 284.63 178.54 288.25 176.19 Z" />
<path fill="#d9c4ad" opacity="1.00" d=" M 266.74 189.03 C 266.52 186.85 268.64 184.27 270.96 184.80 C 272.38 184.82 273.09 186.29 274.09 187.08 C 274.08 188.74 274.74 190.87 273.03 191.94 C 270.90 194.89 266.26 192.28 266.74 189.03 Z" />
<path fill="#d9c4ad" opacity="1.00" d=" M 275.20 196.22 C 280.55 196.44 284.15 201.77 285.64 206.45 C 286.88 210.66 290.15 214.43 289.11 219.08 C 287.27 224.00 284.41 229.41 279.07 231.16 C 271.92 231.90 265.64 226.47 262.05 220.76 C 260.64 213.67 261.95 205.63 267.47 200.54 C 269.45 198.14 271.97 196.27 275.20 196.22 Z" />
<path fill="#d9c4ad" opacity="1.00" d=" M 296.18 227.17 C 300.89 226.58 306.10 226.15 310.48 228.50 C 317.95 232.08 326.92 235.72 329.89 244.21 C 331.77 251.74 328.35 259.19 324.38 265.43 C 321.82 268.82 319.17 272.18 315.82 274.84 C 310.64 277.81 304.47 280.74 298.46 278.61 C 293.42 275.80 289.53 270.40 289.54 264.51 C 285.08 259.63 281.34 253.62 280.69 246.95 C 281.65 238.11 287.71 230.13 296.18 227.17 Z" />
<path fill="#d9c4ad" opacity="1.00" d=" M 265.11 238.05 C 269.40 236.24 273.11 240.07 274.12 243.95 C 275.72 249.40 278.32 255.04 276.91 260.81 C 274.60 266.93 266.87 268.18 261.20 266.93 C 257.42 265.78 255.27 261.80 255.76 257.99 C 254.88 251.37 258.06 245.15 262.01 240.09 C 262.88 239.20 263.96 238.52 265.11 238.05 Z" />
<path fill="#d9c4ad" opacity="1.00" d=" M 335.10 260.03 C 337.57 259.38 340.84 259.20 342.50 261.54 C 345.59 265.06 347.06 270.29 345.90 274.86 C 345.04 278.32 341.14 279.61 337.93 279.27 C 328.87 278.44 325.86 263.04 335.10 260.03 Z" />
<path fill="#d9c4ad" opacity="1.00" d=" M 273.18 271.07 C 282.68 268.57 290.97 278.05 291.18 286.97 C 291.34 291.68 291.28 296.39 291.17 301.11 C 290.50 305.39 288.82 309.57 289.12 313.97 C 288.82 317.45 291.47 320.66 290.42 324.14 C 289.95 326.10 290.54 328.34 289.28 330.08 C 286.01 335.36 281.72 340.60 275.78 342.91 C 271.73 343.85 266.44 344.01 263.59 340.42 C 261.01 336.53 259.10 331.76 259.93 327.03 C 261.11 322.18 262.54 317.36 264.67 312.84 C 266.39 305.25 259.76 299.40 259.75 292.01 C 259.53 283.30 264.89 274.27 273.18 271.07 Z" />
<path fill="#d9c4ad" opacity="1.00" d=" M 319.23 280.19 C 322.85 279.41 326.92 279.11 330.47 280.39 C 336.04 282.26 338.98 287.88 341.15 292.94 C 341.31 295.94 341.39 298.97 341.13 301.97 C 339.50 306.99 337.64 311.94 336.11 316.98 C 336.48 318.81 337.27 320.51 337.91 322.26 C 339.75 331.88 335.40 341.85 328.45 348.47 C 324.87 352.21 320.28 355.66 315.00 356.13 C 309.75 354.81 304.70 351.71 302.15 346.80 C 299.18 342.70 299.54 337.42 298.22 332.76 C 296.79 328.94 296.16 324.90 294.90 321.04 C 294.73 316.33 294.52 311.60 294.89 306.89 C 296.81 299.74 301.70 293.87 306.49 288.42 C 309.81 284.41 314.50 282.10 319.23 280.19 Z" />
<path fill="#d9c4ad" opacity="1.00" d=" M 284.16 344.13 C 290.75 341.79 296.69 347.26 299.28 352.84 C 303.16 359.76 304.41 367.74 305.59 375.46 C 308.64 385.88 302.20 396.03 294.90 402.93 C 291.45 405.59 287.52 408.69 282.90 408.28 C 275.59 407.07 270.74 400.08 269.86 393.05 C 269.23 388.27 267.30 383.76 266.69 378.97 C 263.81 369.28 267.91 358.75 274.45 351.46 C 276.62 347.87 280.41 345.76 284.16 344.13 Z" />
<path fill="#d9c4ad" opacity="1.00" d=" M 309.06 359.94 C 312.90 358.75 315.80 363.38 313.57 366.52 C 312.00 369.22 308.35 368.24 306.87 365.98 C 306.32 363.56 306.96 361.33 309.06 359.94 Z" />
<path fill="#d9c4ad" opacity="1.00" d=" M 326.16 360.98 C 330.78 360.09 336.34 360.66 339.51 364.53 C 345.00 369.66 345.85 377.89 345.02 384.96 C 343.80 390.05 342.88 396.29 337.46 398.64 C 331.53 400.82 325.49 397.64 320.55 394.53 C 317.83 394.43 315.64 392.98 313.55 391.40 C 310.88 387.52 310.39 382.59 310.85 378.00 C 313.32 370.47 319.41 364.80 326.16 360.98 Z" />
<path fill="#d9c4ad" opacity="1.00" d=" M 295.38 410.40 C 300.80 402.35 311.32 397.95 320.84 400.07 C 325.05 401.76 327.98 405.86 328.77 410.27 C 330.78 417.16 331.85 425.83 326.48 431.51 C 322.73 435.34 318.79 440.11 312.98 440.26 C 307.28 441.07 301.83 437.89 298.00 433.93 C 296.17 432.37 293.29 432.12 292.10 429.84 C 291.13 427.98 290.55 425.96 289.80 424.02 C 291.15 419.30 292.28 414.36 295.38 410.40 Z" />
<path fill="#d9c4ad" opacity="1.00" d=" M 262.85 403.05 C 263.91 401.15 266.17 401.77 267.93 401.88 C 269.43 403.20 270.86 404.85 270.20 407.03 C 269.91 410.00 266.15 409.32 264.11 409.03 C 262.18 407.78 262.61 404.99 262.85 403.05 Z" />
<path fill="#d9c4ad" opacity="1.00" d=" M 268.07 413.25 C 269.18 410.95 271.85 410.59 274.00 409.83 C 279.02 411.44 283.17 416.47 282.31 421.95 C 282.74 424.79 280.98 427.64 278.11 428.24 C 270.95 428.72 263.90 419.76 268.07 413.25 Z" />
<path fill="#d9c4ad" opacity="1.00" d=" M 283.14 434.88 C 289.63 433.27 294.75 437.97 299.82 441.17 C 302.03 443.02 303.61 445.61 304.85 448.20 C 305.95 452.31 306.16 457.68 301.86 460.01 C 296.34 461.19 289.99 460.31 286.00 455.99 C 281.72 451.58 277.65 445.59 279.00 439.14 C 280.20 437.56 281.70 436.24 283.14 434.88 Z" />
<path fill="#d9c4ad" opacity="1.00" d=" M 310.05 450.14 C 311.38 446.73 314.69 444.88 318.03 443.89 C 320.26 444.63 323.06 447.15 321.84 449.76 C 320.73 452.56 320.47 455.94 318.07 458.04 C 316.59 459.82 314.07 459.26 312.06 459.14 C 309.07 457.11 309.49 453.26 310.05 450.14 Z" />
</g>
</svg>
